<svg width="585" height="117" viewBox="0 0 585 117" fill="none" xmlns="http://www.w3.org/2000/svg">
<path fill-rule="evenodd" clip-rule="evenodd" d="M314.319 56.0429C313.797 53.955 311.571 52.1229 310.061 50.8801L309.967 50.8028L304.816 47.2502L297.8 42.5431L292.648 38.9905C292.56 38.9462 292.493 38.9018 292.427 38.8574L292.426 38.8571L292.426 38.857C292.359 38.8125 292.293 38.7681 292.204 38.7238C292.08 38.6618 292 38.5567 291.932 38.4687C291.903 38.4305 291.876 38.3955 291.849 38.3686L291.494 38.0134C291.494 38.0134 291.405 37.8355 291.316 37.7467C291.138 37.3026 291.227 36.7698 291.671 36.5034C291.639 36.5034 291.769 36.4918 292.012 36.4702L292.012 36.4702C293.113 36.3722 296.53 36.068 297.622 35.7041C298.865 35.2601 300.109 34.7273 301.263 34.1056C305.083 31.8852 307.925 28.4212 309.346 24.1581C309.879 22.6482 310.145 21.0496 310.323 19.3621V18.2961C310.323 8.17114 302.152 0 292.027 0C281.902 0 273.731 8.17114 273.731 18.2961V18.5629V18.5634C273.731 19.5402 273.731 20.5168 273.908 21.4936C274.441 25.3127 276.217 28.6877 278.704 31.2633C279.504 32.0627 280.303 32.7731 281.191 33.3948C281.272 33.4487 281.361 33.5107 281.458 33.5785C281.681 33.7342 281.948 33.92 282.257 34.1056C283.234 34.7273 284.3 35.4377 285.188 36.1482C285.41 36.3258 285.654 36.5035 285.898 36.6812C286.143 36.8589 286.387 37.0365 286.609 37.2142C286.677 37.2656 286.749 37.3203 286.824 37.377C287.135 37.6144 287.494 37.8873 287.852 38.1023C288.588 38.6802 289.385 39.2581 290.208 39.8543C290.777 40.2661 291.357 40.6866 291.938 41.122C293.803 42.4542 298.244 45.8291 299.31 46.8061C300.286 47.7831 301.175 48.8489 301.796 49.9147C302.418 51.0693 302.773 52.224 302.773 53.5562C302.773 54.8884 302.507 56.3093 301.796 57.8192C301.53 58.6185 301.53 59.418 301.708 60.1285C301.885 60.839 302.329 61.5494 302.773 62.1711C303.217 62.7928 303.839 63.4145 304.461 63.9474C305.083 64.4803 305.704 65.0134 306.237 65.5463C306.271 65.5803 306.305 65.6012 306.334 65.6191C306.381 65.648 306.415 65.6689 306.415 65.7237C306.449 65.7576 306.483 65.7786 306.512 65.7965C306.558 65.8256 306.592 65.8466 306.592 65.9015C306.602 65.9115 306.612 65.9203 306.622 65.9283C306.63 65.9348 306.638 65.9407 306.646 65.9461C306.663 65.9574 306.68 65.9669 306.697 65.9757C306.706 65.9807 306.716 65.9856 306.726 65.9904C306.77 66.0127 306.814 66.0349 306.859 66.0793C306.903 66.1237 306.948 66.1459 306.992 66.168C307.037 66.1901 307.081 66.2123 307.125 66.2567C309.523 67.6777 311.388 67.6779 312.809 66.8786C313.852 66.2923 313.986 65.276 314.159 63.9699C314.222 63.4952 314.29 62.9823 314.408 62.4378C314.852 60.4838 314.852 58.1744 314.319 56.0429ZM285.188 12.4342L283.5 8.17123L287.408 10.5694C288.563 11.28 290.073 10.7468 290.517 9.41456L291.938 5.06268L293.359 9.41456C293.803 10.7468 295.313 11.28 296.467 10.5694L300.375 8.17123L298.688 12.4342C298.155 13.6776 298.954 15.0989 300.375 15.2765L304.905 15.8984L300.819 18.0299C299.576 18.6516 299.309 20.2504 300.286 21.2273L303.395 24.6022L298.954 23.6251C297.622 23.3586 296.379 24.4244 296.467 25.7566L296.645 30.3752L293.803 26.7336C293.004 25.6679 291.316 25.6679 290.517 26.7336L287.675 30.3752L287.852 25.7566C287.941 24.4244 286.698 23.3586 285.365 23.6251L280.925 24.6022L284.033 21.2273C284.921 20.2504 284.655 18.6516 283.5 18.0299L279.415 15.8984L283.944 15.2765C284.921 15.0989 285.721 13.6776 285.188 12.4342ZM425.783 18.5611C427.382 18.5611 428.803 19.538 429.336 21.1367L440.527 59.8605L433.422 45.117C429.07 35.436 421.076 27.4427 410.862 22.5578L409.619 21.9359C408.109 21.2254 406.51 20.87 404.912 20.87C403.757 20.87 402.78 21.8473 402.78 23.0019V111.196C402.78 112.528 403.846 113.683 405.356 114.038L411.04 116.081H392.3C390.168 116.081 388.392 114.393 388.392 112.173V23.0904C388.392 21.9358 387.415 20.9589 386.26 20.9589C384.573 20.9589 382.974 21.3143 381.553 22.0248L380.31 22.6463C370.096 27.5312 362.191 35.5248 357.839 45.117L350.734 59.9489L361.836 21.2256C362.28 19.7157 363.79 18.6496 365.389 18.6496C369.652 19.4489 374.093 19.8042 378.533 19.5377L387.859 19.0052C393.01 18.7387 398.162 18.7387 403.313 19.0052L412.55 19.5377C416.902 19.7154 421.254 19.4489 425.517 18.6496L425.783 18.5611ZM579.168 113.951L583.342 115.549L584.497 115.994H565.312C563.447 115.994 561.849 114.839 561.316 113.063L559.717 108.178C557.408 100.984 551.724 95.2994 544.618 92.8125C534.227 89.704 522.681 91.2142 513.622 96.7208L513.621 96.7218C513.532 96.8103 513.444 96.8986 513.444 96.9871L510.513 105.691C509.359 109.243 511.224 112.974 514.954 114.572L518.329 115.994H493.638L501.72 112.708C504.385 111.908 506.516 110.043 507.316 107.645L532.983 31.1744C533.516 29.3981 533.516 27.5329 532.983 25.7566C532.184 23.1809 529.786 21.1383 526.855 20.5165L520.727 18.6513L532.184 19.3621C535.559 19.5397 538.845 19.3619 542.131 18.6513C543.997 18.6513 545.595 19.8062 546.128 21.5825L574.461 109.155C575.171 111.287 576.858 113.063 579.168 113.951ZM553.944 93.2566C554.299 93.3454 554.477 93.1681 554.566 93.0792C554.605 93.0403 554.626 92.9842 554.646 92.9335C554.672 92.8686 554.693 92.8125 554.743 92.8125L535.204 32.5067L515.043 92.5463C514.954 92.7239 515.043 92.8126 515.132 92.9014C515.22 93.0791 515.576 93.168 515.842 92.9903C521.349 90.3259 527.477 88.9936 533.605 88.9936C537.602 88.9936 541.599 89.5264 545.418 90.681L553.944 93.2566ZM496.569 18.8291L500.566 22.0266C501.276 22.6483 501.632 23.6252 501.276 24.6022L481.914 82.6876L461.931 21.3158C461.487 19.8947 460.066 18.8291 458.556 18.8291C454.115 19.6285 449.586 19.9837 445.056 19.7173L430.757 18.8291L440.526 21.6714C445.234 22.6484 449.053 26.1119 450.474 30.6415L468.503 86.1514C468.519 86.2122 468.534 86.2705 468.549 86.327C468.62 86.6005 468.681 86.834 468.681 87.1284V112.441C468.681 114.395 470.28 115.994 472.145 115.994H491.063L485.467 113.684C484.046 113.418 482.98 112.086 482.98 110.576V92.9014C482.98 88.7271 483.691 84.5528 485.023 80.5561L501.809 30.3752C503.319 25.9344 507.138 22.4706 511.757 21.4936L519.928 18.6513H505.628H496.569V18.8291ZM350.201 114.127C350.823 114.304 351.444 114.482 352.066 114.748L355.263 115.992H336.523C334.48 115.992 332.615 115.015 331.549 113.238L321.336 96.719C317.783 91.0348 311.655 87.6597 304.993 87.6597H285.809V112.173C285.809 112.972 286.342 113.683 287.142 113.86L293.27 115.992H274.085C272.576 115.992 271.332 114.748 271.332 113.238V44.8503C274.086 46.9818 277.194 48.6695 280.48 49.9129C283.678 51.0675 285.72 54.0873 285.72 57.4623V85.4393H296.645C320.092 85.4393 335.191 72.7388 335.191 53.1993C335.191 46.1828 333.148 38.9887 328.263 33.1268C325.954 30.3735 325.066 26.8209 325.599 23.3571C325.776 22.3801 325.865 21.4032 325.954 20.3374C338.477 24.7782 347.625 37.8342 347.625 53.1993C347.625 69.8967 336.967 84.0181 322.49 87.1267H322.668C327.819 88.1036 332.349 91.1236 334.924 95.2979L343.362 108.887C344.96 111.373 347.359 113.238 350.201 114.127ZM174.079 109.953C174.079 112.173 175.589 114.038 177.721 114.482L180.802 115.86L188.556 112.708C191.221 111.908 193.352 110.043 194.151 107.645L219.819 31.1744C220.352 29.3981 220.352 27.5329 219.819 25.7566C219.02 23.1809 216.622 21.1383 213.691 20.5165L207.563 18.6513L219.02 19.3621C222.395 19.5397 225.681 19.3619 228.967 18.6513C230.833 18.6513 232.431 19.8062 232.964 21.5825L261.296 109.155C262.007 111.287 263.694 113.063 266.004 113.951L270.178 115.549L271.333 115.994H252.148C250.283 115.994 248.684 114.839 248.152 113.063L246.553 108.178C244.244 100.984 238.559 95.2994 231.454 92.8125C221.063 89.704 209.517 91.2142 200.457 96.7208L200.457 96.7211C200.368 96.8098 200.28 96.8984 200.28 96.9871L197.349 105.691C196.194 109.243 198.059 112.974 201.79 114.572L205.165 115.994H180.474L180.478 115.992H163.51C161.467 115.992 159.78 114.305 159.78 112.262V28.7749L129.938 116.081C129.05 115.37 128.428 114.482 128.073 113.416L104.093 39.0772V108.442C104.093 110.396 105.247 112.084 107.023 112.794L115.461 115.992H90.8541L90.8586 115.994H71.6743C69.8092 115.994 68.2105 114.839 67.6776 113.063L66.0789 108.178C63.7697 100.984 58.0855 95.2994 50.9802 92.8125C40.5887 89.704 29.0428 91.2142 19.9836 96.7208L19.9832 96.7211C19.8945 96.8098 19.806 96.8984 19.806 96.9871L16.875 105.691C15.7204 109.243 17.5855 112.974 21.3158 114.572L24.6908 115.994H0L8.08211 112.708C10.7466 111.908 12.8782 110.043 13.6775 107.645L39.3455 31.1744C39.8783 29.3981 39.8783 27.5329 39.3455 25.7566C38.5461 23.1809 36.148 21.1383 33.217 20.5165L27.0888 18.6513L38.546 19.3621C41.921 19.5397 45.2071 19.3619 48.4933 18.6513C50.3584 18.6513 51.9571 19.8062 52.49 21.5825L80.8224 109.155C81.5329 111.287 83.2205 113.063 85.5297 113.951L89.704 115.549L90.8084 115.974L98.3195 112.528C100.273 111.906 101.606 110.13 101.606 108.087V38.4558C101.606 33.8373 100.895 29.2187 99.4742 24.8667L99.2077 23.9785C98.6748 22.3799 97.3426 21.2252 95.7439 20.87L88.7274 18.5611L98.7636 19.5377C101.783 19.7154 104.714 19.538 107.645 18.9163L109.155 18.5611C110.754 18.5611 112.175 19.6268 112.708 21.1367L135.8 92.6334L158.625 23.9785C158.981 22.7351 158.27 21.492 157.116 21.2256L150.543 18.5611L160.313 19.4493C163.688 19.7157 167.063 19.3605 170.349 18.5611C172.392 18.5611 174.079 20.2484 174.079 22.2911V109.953ZM60.9275 93.0792C60.8387 93.1681 60.6611 93.3454 60.3059 93.2566L51.7797 90.681C47.9606 89.5264 43.9638 88.9936 39.9671 88.9936C33.8388 88.9936 27.7105 90.3259 22.204 92.9903C21.9375 93.168 21.5822 93.0791 21.4934 92.9014L21.4932 92.9013C21.4045 92.8125 21.3157 92.7238 21.4045 92.5463L41.5658 32.5067L61.1053 92.8125C61.1053 92.8125 61.0163 92.9904 60.9275 93.0792ZM240.78 93.2566C241.135 93.3454 241.313 93.1681 241.402 93.0792C241.441 93.0403 241.462 92.9842 241.482 92.9335C241.508 92.8686 241.529 92.8125 241.579 92.8125L222.04 32.5067L201.879 92.5463C201.79 92.7239 201.878 92.8126 201.967 92.9014C202.056 93.0791 202.411 93.168 202.678 92.9903C208.184 90.3259 214.313 88.9936 220.441 88.9936C224.438 88.9936 228.434 89.5264 232.254 90.681L240.78 93.2566Z" fill="white"/>
</svg>
