<svg width="610" height="276" viewBox="0 0 610 276" fill="none" xmlns="http://www.w3.org/2000/svg">
<path d="M609.6 179.7V91.5C586.7 91.5 567.8 73.9997 565.7 51.6997C565.6 50.5997 564.6 49.6997 563.5 49.6997H517.4C464.2 49.6997 412 37.0997 363.9 14.1997C346.1 5.79971 326.3 1 305.3 1C284.3 1 264.4 5.69971 246.7 14.1997C198.7 36.9997 146.4 49.6997 93.2 49.6997H47.1001C46.0001 49.6997 44.9999 50.5997 44.8999 51.6997C42.7999 73.3997 25.1001 90.4 3.1001 91.5C1.9001 91.6 1 92.4997 1 93.6997V177.6C1 178.8 1.9001 179.8 3.1001 179.8C26.5001 180.9 45.1001 200.2 45.1001 223.9C45.1001 225.1 46.0999 226.2 47.3999 226.2H93.3C146.5 226.2 198.7 238.8 246.8 261.7C264.6 270.1 284.4 274.9 305.4 274.9C326.4 274.9 346.3 270.2 364 261.7C412 238.9 464.3 226.2 517.5 226.2H563.4C564.6 226.2 565.7 225.2 565.7 223.9C565.5 199.4 585.3 179.7 609.6 179.7Z" stroke="white" stroke-width="0.75" stroke-miterlimit="10"/>
<path d="M305.3 266.001C286.1 266.001 267.6 261.901 250.4 253.701C199.7 229.601 146.8 217.401 93.2002 217.401H53.4001C50.6001 194.201 32.8002 175.501 9.7002 171.701V99.4014C31.0002 95.8014 48.2002 79.4013 52.7002 58.3013H93.3003C146.9 58.3013 199.8 46.1015 250.5 22.0015C267.7 13.8015 286.2 9.70117 305.4 9.70117C324.6 9.70117 343.1 13.8015 360.3 22.0015C411 46.1015 463.9 58.3013 517.5 58.3013H558.1C562.6 79.7013 579.7 95.9014 601.1 99.4014V171.701C578.2 175.501 560.2 194.101 557.4 217.401H517.6C464 217.401 411.1 229.601 360.4 253.701C343 261.801 324.5 266.001 305.3 266.001Z" stroke="white" stroke-width="0.75" stroke-miterlimit="10"/>
</svg>
