<svg width="305" height="300" viewBox="0 0 305 300" fill="none" xmlns="http://www.w3.org/2000/svg">
<path d="M152.15 1.7002L168.67 52.9102C169.813 56.4534 171.75 59.6888 174.334 62.3696C176.917 65.0503 180.079 67.1057 183.577 68.379C187.076 69.6522 190.819 70.1097 194.521 69.7165C198.223 69.3233 201.787 68.0899 204.94 66.1102L250.52 37.5002L230.25 87.3502C228.849 90.7996 228.255 94.5232 228.511 98.2373C228.768 101.951 229.868 105.558 231.73 108.782C233.591 112.006 236.164 114.763 239.252 116.842C242.34 118.921 245.863 120.268 249.55 120.78L302.86 128.15L255.29 153.32C252.001 155.062 249.153 157.531 246.963 160.54C244.773 163.549 243.299 167.018 242.653 170.683C242.006 174.348 242.205 178.112 243.234 181.688C244.263 185.265 246.095 188.559 248.59 191.32L284.68 231.23L232.07 219.93C228.43 219.15 224.66 219.211 221.047 220.108C217.434 221.006 214.074 222.716 211.222 225.109C208.37 227.502 206.102 230.514 204.591 233.916C203.079 237.318 202.364 241.02 202.5 244.74L204.5 298.52L171.5 256.04C169.213 253.103 166.286 250.726 162.941 249.091C159.596 247.457 155.923 246.607 152.2 246.607C148.477 246.607 144.804 247.457 141.459 249.091C138.114 250.726 135.187 253.103 132.9 256.04L99.9001 298.52L101.9 244.74C102.038 241.02 101.324 237.318 99.8138 233.916C98.3035 230.514 96.0364 227.502 93.1852 225.109C90.3341 222.716 86.9742 221.005 83.3618 220.108C79.7493 219.21 75.9796 219.15 72.3401 219.93L19.72 231.23L55.8201 191.32C58.3147 188.558 60.1459 185.263 61.1741 181.686C62.2023 178.11 62.4003 174.345 61.7532 170.68C61.106 167.015 59.6307 163.546 57.4396 160.538C55.2486 157.529 52.3997 155.061 49.11 153.32L1.54004 128.15L54.85 120.78C58.5376 120.268 62.0597 118.921 65.1479 116.842C68.2361 114.763 70.8089 112.006 72.6703 108.782C74.5317 105.558 75.6326 101.951 75.889 98.2373C76.1455 94.5232 75.5507 90.7996 74.1501 87.3502L53.79 37.5002L99.36 66.1102C102.513 68.0899 106.077 69.3233 109.779 69.7165C113.481 70.1097 117.224 69.6522 120.723 68.379C124.221 67.1057 127.383 65.0503 129.966 62.3696C132.55 59.6888 134.487 56.4534 135.63 52.9102L152.15 1.7002Z" stroke="white" stroke-width="0.75" stroke-miterlimit="10"/>
</svg>
