<svg width="222" height="219" viewBox="0 0 222 219" fill="none" xmlns="http://www.w3.org/2000/svg">
<path d="M121.4 8.575C127.9 28.875 151.8 37.5751 169.9 26.1751C178.9 20.5751 189.8 29.675 185.8 39.575C177.8 59.275 190.5 81.2752 211.6 84.2752C222.1 85.7752 224.6 99.7752 215.2 104.775C196.4 114.775 192 139.775 206.2 155.575C213.3 163.475 206.2 175.775 195.8 173.575C175 169.075 155.5 185.475 156.3 206.775C156.7 217.375 143.3 222.275 136.8 213.875C123.7 197.075 98.2999 197.075 85.1999 213.875C78.6999 222.275 65.2999 217.375 65.6999 206.775C66.4999 185.475 46.9999 169.175 26.1999 173.575C15.7999 175.775 8.70001 163.475 15.8 155.575C30.1 139.775 25.7 114.775 6.80001 104.775C-2.59999 99.7752 -0.100142 85.7752 10.3999 84.2752C31.4999 81.3752 44.1999 59.375 36.1999 39.575C32.1999 29.775 43.0998 20.5751 52.0998 26.1751C70.0998 37.4751 93.9998 28.775 100.6 8.575C103.9 -1.525 118.1 -1.525 121.4 8.575Z" fill="white" stroke="white" stroke-width="0.75" stroke-miterlimit="10"/>
</svg>
