<svg width="304" height="300" viewBox="0 0 304 300" fill="none" xmlns="http://www.w3.org/2000/svg">
<path d="M152 2L168.423 53.0448C173.301 68.1987 191.118 74.6789 204.555 66.2047L249.943 37.6915L229.737 87.4402C223.765 102.195 233.221 118.546 248.948 120.739L302 128.117L254.621 153.24C240.587 160.717 237.302 179.361 247.952 191.125L283.885 230.904L231.529 219.638C216.001 216.348 201.469 228.511 202.066 244.363L204.057 298L171.21 255.629C161.456 243.067 142.544 243.067 132.79 255.629L99.9429 298L101.934 244.363C102.531 228.511 87.9987 216.249 72.4712 219.638L20.1154 230.904L56.0478 191.125C66.6981 179.361 63.4133 160.618 49.3788 153.24L2 128.117L55.0525 120.739C70.7791 118.546 80.2348 102.096 74.2626 87.4402L54.0571 37.6915L99.4452 66.2047C112.882 74.6789 130.699 68.1987 135.577 53.0448L152 2Z" stroke="white" stroke-width="0.75" stroke-miterlimit="10"/>
</svg>
