<svg width="72" height="72" viewBox="0 0 72 72" fill="none" xmlns="http://www.w3.org/2000/svg">
<path d="M36 2L39.7226 13.7265C40.8281 17.2078 44.8666 18.6965 47.9124 16.7497L58.2004 10.1994L53.6205 21.6282C52.2668 25.0178 54.4101 28.774 57.9748 29.2778L70 30.9727L59.2608 36.7444C56.0797 38.4621 55.3351 42.745 57.7492 45.4476L65.8938 54.586L54.0265 51.998C50.507 51.2422 47.213 54.0364 47.3484 57.678L47.7996 70L40.3544 60.2661C38.1433 57.3803 33.8567 57.3803 31.6456 60.2661L24.2004 70L24.6516 57.678C24.787 54.0364 21.4931 51.2193 17.9735 51.998L6.10616 54.586L14.2508 45.4476C16.6649 42.745 15.9203 38.4392 12.7392 36.7444L2 30.9727L14.0252 29.2778C17.5899 28.774 19.7332 24.9949 18.3795 21.6282L13.7996 10.1994L24.0876 16.7497C27.1334 18.6965 31.1719 17.2078 32.2774 13.7265L36 2Z" stroke="white" stroke-miterlimit="10"/>
</svg>
