<svg width="772" height="758" viewBox="0 0 772 758" fill="none" xmlns="http://www.w3.org/2000/svg">
<path fill-rule="evenodd" clip-rule="evenodd" d="M386.6 73.7002V0L389.199 74.1001C388.4 73.9002 387.501 73.8003 386.602 73.7004L386.6 73.7002ZM382 74.1001L384.6 0.5V73.7002L384.598 73.7005C383.698 73.8004 382.799 73.9003 382 74.1001ZM236.4 215C237.3 215.4 237.6 216.201 237.7 216.601C237.8 217.001 237.9 217.901 237.3 218.601C236.5 219.601 236 220.701 235.6 221.801L133.7 91.3008L225 200.101V201.701C224.9 206.501 227.7 211 232.1 213L236.4 215ZM277.9 327.101C281.6 320.801 283.7 313.9 284.4 306.9L299.3 322L272 349.301L265.1 342.4C269.9 338.5 274.1 333.701 277.3 328.201L277.9 327.101ZM111.1 340.6L3.59961 321.6L116.3 337.399C114.4 338.099 112.6 339.2 111.1 340.6ZM328.8 351.301L309.4 370.601C318.5 367.201 325.4 360.001 328.8 351.301ZM134.5 340H135L132.5 339.6L132.7 339.7C133.3 339.9 133.9 340 134.5 340ZM221.8 357.801L217.4 357.101L217.397 357.1H217.397H217.396H217.396H217.396H217.395H217.395H217.395H217.394H217.394H217.394H217.393H217.393H217.393H217.392H217.392H217.392H217.391H217.391H217.391H217.39H217.39H217.39H217.389H217.389H217.389H217.389H217.388H217.388H217.388H217.387H217.387H217.387H217.386H217.386H217.386H217.385H217.385H217.385H217.384H217.384H217.384H217.383H217.383H217.383H217.382H217.382H217.382H217.381H217.381H217.381H217.381H217.38H217.38H217.38H217.379H217.379H217.379C216.686 357 215.993 356.9 215.3 356.9C213.5 356.9 211.8 357.2 210.2 357.9L224.5 360.4L221.8 357.801ZM252.4 243.2L252.2 243.1L253.5 244.7C253.4 244.1 253 243.6 252.4 243.2ZM256.5 447.3C262.3 438.1 265 427.2 264 416.1L272 408.1L299.3 435.399L291.9 442.8L266.6 457.399L256.5 447.3ZM207.4 359.5C206.8 359.9 206.2 360.4 205.6 361L200.9 365.7L224.3 370.7C231 372.1 237.2 374.9 242.6 378.7L226.9 363L207.4 359.5ZM229.4 478.999L49 583.099L224 473.699L229.4 478.999ZM0 322.9L106.3 345.601L109.4 342.201L0 322.9ZM301.5 378.6L302 378.1C308.3 381.6 312.9 386.9 315.7 392.8L301.5 378.6ZM722.4 583.3L547.2 473.6L541.8 479L722.4 583.3ZM570.3 365.7L546.9 370.7C540.2 372.1 534 374.9 528.6 378.6L544.3 362.9L563.8 359.5C563.867 359.548 563.934 359.596 564 359.642C564.615 360.079 565.148 360.458 565.6 361L570.3 365.7ZM479.2 442.8L503 456.5C505.2 455.9 507.2 454.7 508.8 453.1L514.6 447.3C508.9 438.1 506.1 427.2 507.1 416.1L499.1 408.1L471.8 435.399L479.2 442.8ZM661.8 342.201L771.2 322.9L664.9 345.601L661.8 342.201ZM455.5 392.899L469.8 378.6L469.3 378.1C462.9 381.6 458.3 386.899 455.5 392.899ZM343.5 272.101L342 272.601C331.4 276.501 320 276.601 309.7 273.301L328.8 292.4L355.4 265.801C351.8 268.401 347.8 270.501 343.5 272.101ZM358.3 321.899L384.6 295.6C383.9 310.6 374.3 321.6 362.4 326L358.3 321.899ZM378 188.999L376.7 226.599V226.699L384.7 234.699V186.699C382.2 186.799 379.9 187.599 378 188.999ZM225.2 197.2L136.5 91.5L225.4 190.1L225.2 197.2ZM463.4 485.9L442.4 464.9L421.5 485.801L428.9 506.201L445.8 523.101C446 523.301 446.175 523.501 446.35 523.701C446.525 523.901 446.7 524.101 446.9 524.301C446.6 509.901 452.5 495.8 463.4 485.9ZM540.4 480.4L723.8 586.301L534.9 486L540.4 480.4ZM451.4 567.801L519.7 755.5L458 565.4H452.6C452.4 566.001 452.111 566.512 451.822 567.023C451.678 567.279 451.534 567.534 451.4 567.801ZM499.1 457.099C495.5 457.099 492.1 455.699 489.5 453.099L484.5 448.199L499.9 457.099H499.1ZM415 492.201L425.6 502.801L420 487.301L415 492.201ZM252.9 757.301L321.1 569.9C322.4 571.7 323.8 573.401 325.4 575L326.3 575.9L252.9 757.301ZM444.9 575.9L518.1 756.9L450.1 569.9C448.8 571.7 447.5 573.401 445.9 575L444.9 575.9ZM385.6 462.8L381.1 458.3C384.1 457.9 387.1 457.9 390.1 458.3L385.6 462.8ZM356.2 492.201L351.2 487.301L345.5 502.801L356.2 492.201ZM324.85 523.601C324.675 523.801 324.5 524.001 324.3 524.201C324.6 509.901 318.7 495.801 307.8 485.801L328.8 464.801L349.7 485.701L342.3 506.101L325.4 523C325.2 523.201 325.025 523.401 324.85 523.601ZM313.2 565.5L251.7 755.1L319.9 567.8C319.7 567.4 319.475 567.025 319.25 566.65C319.025 566.275 318.8 565.9 318.6 565.5H313.2ZM236.3 486L47.2002 586.4L230.8 480.4L236.3 486ZM272 462.799L286.6 448.199L268.1 458.899L272 462.799ZM413 321.899L408.9 326C396.8 321.6 387.2 310.6 386.7 295.6L413 321.899ZM393.2 188.999C391.2 187.699 388.9 186.899 386.5 186.699V234.699L394.5 226.699V226.599L393.2 188.999ZM545.8 190.1L634.7 91.5L546 197.2L545.8 190.1ZM429.1 272.601L427.6 272.101C423.3 270.501 419.3 268.401 415.7 265.801L442.3 292.4L461.4 273.301C451.1 276.601 439.8 276.501 429.1 272.601ZM517.7 244.7L519 243.1L518.8 243.2C518.2 243.6 517.8 244.1 517.7 244.7ZM553.9 357.2L553.904 357.2C554.603 357.1 555.301 357 556 357C557.7 357 559.5 357.3 561.1 358.1L546.8 360.6L549.5 357.9L553.9 357.2ZM638.5 339.7L638.7 339.6L636.2 339.899H636.7C637.3 339.999 637.9 339.9 638.5 339.7ZM493.9 328.101C497.1 333.701 501.3 338.501 506.1 342.301L499.1 349.101L471.8 321.801L486.8 306.801C487.5 313.801 489.6 320.701 493.3 327L493.9 328.101ZM539.1 213.101L534.8 215.101C533.9 215.501 533.6 216.301 533.5 216.701C533.4 217.101 533.3 217.901 533.901 218.701C534.601 219.701 535.2 220.8 535.6 221.9L637.5 91.4004L546.2 200.201V201.801C546.3 206.601 543.5 211.101 539.1 213.101ZM461.7 370.701L442.3 351.301C445.8 360.001 452.7 367.201 461.7 370.701ZM767.6 321.6L654.9 337.399C656.8 338.099 658.6 339.2 660.1 340.6L767.6 321.6ZM499.1 356.1L521.7 378.7L541.3 398.3L539.2 398L554.5 413.3C560.1 418.9 563.4 426.1 563.9 433.5C564.1 436.1 563.9 438.799 563.4 441.399L561.7 450C560.2 452.9 558.2 455.7 555.8 458.1L521.6 492.3C509.2 504.8 489 504.8 476.5 492.3L446 461.8L468.6 439.2L486 456.6C493.3 463.8 505 463.8 512.2 456.6L520.2 448.6C527.4 441.3 527.4 429.599 520.2 422.399L499.1 401.3L476.5 378.7L450 352.2L446 348.2L468.6 325.6L499.1 356.1ZM442.4 526.399L411.9 495.899L408.2 492.2L385.6 469.6L355.1 439.1L332.5 461.7L336.5 465.7L363 492.2L385.6 514.8L406.7 535.899C413.9 543.099 413.9 554.8 406.7 562.1L398.7 570.1C391.5 577.3 379.8 577.3 372.5 570.1L364.5 562.1C357.3 554.9 357.3 543.199 364.5 535.899L381.9 518.5L359.3 495.899L328.8 526.399C316.3 538.899 316.3 559.099 328.8 571.5L336.9 579.6C339.4 582.1 340.4 585.7 339.6 589.1L335.2 607.5C333.8 613.2 337.6 618.9 343.4 619.8C349.7 620.8 353.5 627.3 351.3 633.2L349 639.399C347.6 643.199 348.6 647.4 351.5 650.2L378.8 676C382.7 679.7 388.7 679.7 392.6 676L419.9 650.2C422.8 647.4 423.8 643.199 422.4 639.399L420.1 633.2C417.9 627.2 421.7 620.8 428 619.8C433.8 618.9 437.6 613.2 436.2 607.5L431.8 589.1C431 585.7 432 582.1 434.5 579.6L442.6 571.5C454.8 559.099 454.8 538.899 442.4 526.399ZM272.1 401.3L249.5 378.7L230 359L232.1 359.3L216.3 343.5C209.1 336.299 205.9 325.999 207.9 315.899L209.6 307.3C211.1 304.4 213 301.7 215.4 299.3L249.6 265.1C262 252.6 282.2 252.6 294.7 265.1L325.2 295.6L302.6 318.2L285.2 300.8C277.9 293.6 266.2 293.6 259 300.8L251 308.8C243.8 316.1 243.8 327.799 251 335L272.1 356.1L294.7 378.7L325.2 409.2L302.6 431.8L272.1 401.3ZM298.3 374.9H298.4L311.7 361.5L325.1 348.201L328.8 344.4L351.4 321.9L355.1 318.101L381.9 291.4L359.3 268.801L355.4 272.701L355.3 272.801L354.7 273.4L328.8 299.301L306.3 321.9L296.1 332L275.8 352.301L298.3 374.9ZM438.6 409.1L416.1 431.7L385.6 401.2L363 378.7L336.5 352.2L332.6 348.2L355.1 325.6L385.6 356.1L408.199 378.7L438.6 409.1ZM554.6 344C560.2 338.4 563.5 331.3 564 323.8C564.2 321.1 564 318.499 563.5 315.899L561.8 307.399C560.3 304.499 558.4 301.8 555.9 299.3L521.7 265.1C509.2 252.6 489 252.6 476.6 265.1L446.1 295.6L442.4 299.3L419.8 321.899L389.3 352.399L411.9 375L442.4 344.5L465 321.899L486.1 300.8C493.3 293.6 505 293.6 512.3 300.8L520.3 308.8C527.5 316 527.5 327.7 520.3 335L502.9 352.399L525.5 375L541.4 359.1L539.3 359.399L554.6 344ZM464.9 435.4L442.4 458L411.9 488.5L389.3 465.9L419.8 435.4L442.4 412.9L468.2 387L468.9 386.4L469 386.301L472.9 382.4L495.4 405L464.9 435.4ZM328.8 230.9L336.5 238.6L359.3 261.4L362.2 264.3L416.1 318.2L438.7 295.6L408.2 265.1L385.6 242.5L364.5 221.4C357.3 214.2 357.3 202.5 364.5 195.2L372.5 187.2C379.7 180 391.4 180 398.7 187.2L406.7 195.2C413.9 202.4 413.9 214.1 406.7 221.4L389.3 238.8L411.9 261.4L442.4 230.9C454.9 218.4 454.9 198.2 442.4 185.8L434.3 177.7C431.8 175.2 430.8 171.6 431.6 168.2L436 149.8C437.4 144.1 433.6 138.4 427.8 137.5C421.5 136.5 417.7 130 419.9 124.1L422.2 117.9C423.6 114.1 422.6 109.9 419.7 107.1L392.5 81.4C388.6 77.7 382.6 77.7 378.7 81.4L351.5 107.1C348.6 109.9 347.6 114.1 349 117.9L351.3 124.1C353.5 130.1 349.7 136.5 343.4 137.5C337.6 138.4 333.8 144.1 335.2 149.8L339.6 168.2C340.4 171.6 339.4 175.2 336.9 177.7L328.8 185.8C316.4 198.2 316.4 218.4 328.8 230.9ZM207.7 441.4C205.7 431.4 208.9 421.001 216.1 413.801L231.7 398L229.6 398.301L245.5 382.4L268.1 405L250.7 422.4C243.5 429.7 243.5 441.401 250.7 448.601L271.8 469.701L306 435.5L328.6 412.9L354.5 387L355.1 386.4L359.1 382.4L381.7 405L355 431.701L351.3 435.4L328.7 458L325 461.701L294.5 492.201C282.1 504.701 261.9 504.701 249.4 492.201L215.2 458C212.8 455.6 210.9 452.9 209.4 450L207.7 441.4ZM568.8 324.201C568.2 333.001 564.2 341.3 558 347.5L553.1 352.4C558.7 351.6 564.599 353.301 569 357.601L577 365.601C584.2 372.801 584.2 384.501 577 391.801L569 399.801C564.7 404.101 558.8 405.8 553.1 405L558 409.9C564.2 416.1 568.2 424.401 568.8 433.201C569 436.301 568.799 439.4 568.199 442.4C571.899 440.8 575.4 438.6 578.5 435.5L586.6 427.4C589.1 424.9 592.7 423.901 596.1 424.701L614.5 429.101C620.2 430.501 625.9 426.7 626.8 420.9C627.8 414.6 634.299 410.8 640.199 413L646.4 415.301C650.2 416.701 654.399 415.701 657.199 412.801L682.9 385.5C686.6 381.6 686.6 375.601 682.9 371.701L657.199 344.5C654.399 341.6 650.2 340.6 646.4 342L640.199 344.301C634.199 346.501 627.8 342.7 626.8 336.4C625.9 330.6 620.2 326.801 614.5 328.201L596.1 332.601C592.7 333.401 589.1 332.4 586.6 329.9L578.5 321.801C575.5 318.801 571.999 316.5 568.199 314.9C568.799 318 569 321.001 568.8 324.201ZM218 405L212.7 410.3C204 419 200.8 431.1 203 442.7C199.2 441.1 195.7 438.8 192.7 435.8L184.6 427.7C182.1 425.2 178.5 424.2 175.1 425L156.7 429.399C151 430.799 145.3 427 144.4 421.2C143.4 414.9 137 411.1 131 413.3L124.8 415.6C121 417 116.8 416 114 413.1L88.1998 385.8C84.4998 381.9 84.4998 375.9 88.1998 372L114 344.7C116.8 341.8 121 340.8 124.8 342.2L131 344.5C136.9 346.7 143.4 342.9 144.4 336.6C145.3 330.8 151 326.999 156.7 328.399L175.1 332.8C178.5 333.6 182.1 332.6 184.6 330.1L192.7 322C195.8 319 199.3 316.7 203 315.1C200.8 326.3 204 338.4 212.7 347.1L218 352.399C212.3 351.599 206.4 353.3 202.1 357.6L194.1 365.6C186.9 372.9 186.9 384.6 194.1 391.8L202.1 399.8C206.5 404.1 212.4 405.799 218 405ZM258.401 245.3V249.6C262.701 248.1 267.301 247.3 272.001 247.3C276.601 247.3 281 248.1 285.2 249.5C282.8 247.1 281.401 243.8 281.401 240.2V232C281.401 224.6 287.4 218.7 294.7 218.7H302.901C307.301 218.7 311.201 220.8 313.601 224.1V222.9C311.801 218.3 310.901 213.4 310.901 208.3C310.901 203.9 311.601 199.7 312.901 195.6H308.001C305.501 195.6 303.101 194.3 301.801 192.1L294.7 180.5C292.5 176.9 287.701 175.9 284.301 178.4C280.601 181.1 275.401 179.7 273.501 175.6L271.501 171.3C270.301 168.7 267.6 167 264.7 167.1L237.7 167.9C233.9 168 230.8 171.1 230.7 174.9L229.901 201.9C229.801 204.8 231.501 207.5 234.101 208.7L238.401 210.7C242.601 212.6 243.9 217.8 241.2 221.5C238.7 224.9 239.701 229.7 243.301 231.9L254.901 239C257.101 240.4 258.401 242.7 258.401 245.3ZM476.4 218.6H468.2C463.8 218.6 460 220.8 457.4 224V222.8C460.8 214.1 461 204.4 458.1 195.6H463.1C465.6 195.6 468 194.3 469.3 192.1L476.4 180.5C478.6 176.9 483.4 175.9 486.8 178.4C490.5 181.1 495.7 179.8 497.6 175.6L499.6 171.3C500.8 168.7 503.5 167 506.4 167.1L533.4 167.9C537.2 168 540.3 171.1 540.4 174.9L541.2 201.9C541.3 204.8 539.6 207.5 537 208.7L532.7 210.7C528.6 212.6 527.2 217.8 529.9 221.5C532.4 224.9 531.4 229.7 527.8 231.9L516.2 239C514 240.3 512.7 242.7 512.7 245.2V249.5C508.4 248 503.8 247.2 499.1 247.2C494.5 247.2 490.1 248 485.9 249.4C488.2 247 489.7 243.7 489.7 240.1V231.9C489.7 224.6 483.8 218.6 476.4 218.6ZM512.8 510.999V507.699C508.5 509.199 503.899 509.999 499.199 509.999C495.099 509.999 491.099 509.399 487.199 508.199C488.799 510.399 489.8 513.099 489.8 515.999V524.199C489.8 531.599 483.799 537.499 476.5 537.499H468.3C463.9 537.499 460 535.399 457.6 532.099V534.399C460.8 542.799 461.1 551.999 458.6 560.499H463.199C465.699 560.499 468.1 561.799 469.4 563.999L476.5 575.599C478.7 579.199 483.5 580.199 486.9 577.699C490.6 574.999 495.799 576.399 497.699 580.499L499.699 584.799C500.899 587.399 503.6 589.099 506.5 588.999L533.5 588.199C537.299 588.099 540.4 584.999 540.5 581.199L541.3 554.199C541.4 551.299 539.7 548.599 537.1 547.399L532.8 545.399C528.6 543.499 527.299 538.299 530 534.599C532.5 531.199 531.5 526.399 527.9 524.199L516.3 517.099C514.1 515.899 512.8 513.499 512.8 510.999ZM313.7 532.201V534.4C311.9 539 311 543.901 311 549.101C311 553.101 311.6 557.001 312.7 560.701H308.1C305.6 560.701 303.2 562.001 301.9 564.201L294.8 575.801C292.6 579.401 287.8 580.4 284.4 577.9C280.7 575.2 275.5 576.501 273.6 580.701L271.6 585C270.4 587.6 267.7 589.301 264.8 589.201L237.8 588.4C234 588.3 230.9 585.2 230.8 581.4L230 554.4C229.9 551.5 231.6 548.801 234.2 547.601L238.5 545.601C242.6 543.701 244 538.501 241.3 534.801C238.8 531.401 239.8 526.6 243.4 524.4L255 517.301C257.2 516.001 258.5 513.601 258.5 511.101V507.801C262.8 509.301 267.4 510.101 272.1 510.101C276.2 510.101 280.3 509.501 284.1 508.301C282.5 510.501 281.5 513.201 281.5 516.101V524.301C281.5 531.601 287.4 537.601 294.8 537.601H303C307.4 537.601 311.3 535.501 313.7 532.201Z" fill="#121111"/>
</svg>
