<svg width="646" height="240" viewBox="0 0 646 240" fill="none" xmlns="http://www.w3.org/2000/svg">
<g filter="url(#filter0_b_186_4142)">
<path fill-rule="evenodd" clip-rule="evenodd" d="M0 44C24.3005 44 44 24.3005 44 0H602C602 24.3005 621.699 44 646 44V195.067C621.699 195.067 602 214.766 602 239.067H44C44 214.766 24.3005 195.067 0 195.067V44Z" fill="black" fill-opacity="0.5"/>
</g>
<path fill-rule="evenodd" clip-rule="evenodd" d="M15.4001 181.683C35.8293 187.152 51.9152 203.238 57.3841 223.667H588.616C594.085 203.238 610.171 187.152 630.6 181.683V57.3844C610.171 51.9155 594.085 35.8295 588.616 15.4003H57.3841C51.9152 35.8295 35.8293 51.9155 15.4001 57.3844V181.683ZM56.8185 14.667H589.182C594.488 35.2826 610.718 51.5127 631.333 56.8187V182.249C610.718 187.555 594.488 203.785 589.182 224.4H56.8185C51.5124 203.785 35.2823 187.555 14.6667 182.249V56.8187C35.2823 51.5127 51.5124 35.2826 56.8185 14.667Z" fill="#CBCBCB"/>
<path fill-rule="evenodd" clip-rule="evenodd" d="M19.0666 178.933C38.5629 185.11 53.9567 200.503 60.1329 220H585.867C592.043 200.503 607.437 185.11 626.933 178.933V60.1327C607.437 53.9565 592.043 38.5627 585.867 19.0663H60.1329C53.9567 38.5627 38.5629 53.9565 19.0666 60.1327V178.933ZM18.3333 59.5933V179.473C38.0153 185.52 53.5458 201.051 59.5935 220.733H586.406C592.454 201.051 607.985 185.52 627.667 179.473V59.5933C607.985 53.5455 592.454 38.015 586.406 18.333H59.5935C53.5458 38.015 38.0153 53.5455 18.3333 59.5933Z" fill="#CBCBCB"/>
<defs>
<filter id="filter0_b_186_4142" x="-50" y="-50" width="746" height="339.066" filterUnits="userSpaceOnUse" color-interpolation-filters="sRGB">
<feFlood flood-opacity="0" result="BackgroundImageFix"/>
<feGaussianBlur in="BackgroundImageFix" stdDeviation="25"/>
<feComposite in2="SourceAlpha" operator="in" result="effect1_backgroundBlur_186_4142"/>
<feBlend mode="normal" in="SourceGraphic" in2="effect1_backgroundBlur_186_4142" result="shape"/>
</filter>
</defs>
</svg>
