<svg width="866" height="682" viewBox="0 0 866 682" fill="none" xmlns="http://www.w3.org/2000/svg">
<g filter="url(#filter0_d_193_134)">
<path d="M816 481.394V144.711C785.692 144.711 760.685 121.628 757.884 92.05C757.784 90.5511 756.484 89.352 754.984 89.352H693.868C623.449 89.352 574.236 72.6644 510.62 42.387C487.113 31.1954 460.807 25 433 25C405.193 25 378.886 31.2953 355.38 42.387C291.763 72.5645 242.55 89.352 172.132 89.352H111.016C109.516 89.352 108.215 90.5511 108.115 92.05C105.315 120.729 81.8081 143.312 52.8005 144.711C51.2001 144.811 50 146.11 50 147.609V478.496C50 480.095 51.2001 481.394 52.8005 481.394C83.7086 482.893 108.415 508.374 108.415 539.65C108.415 541.249 109.715 542.648 111.416 542.648H172.132C242.55 542.648 291.763 559.336 355.38 589.613C378.886 600.805 405.193 607 433 607C460.807 607 487.113 600.705 510.62 589.613C574.236 559.436 623.449 542.648 693.868 542.648H754.584C756.184 542.648 757.584 541.349 757.584 539.65C757.584 507.574 783.792 481.394 816 481.394Z" fill="white" fill-opacity="0.9"/>
<path d="M110.098 336C118.867 336 126.355 330.286 129.015 322.404C129.606 320.729 129.902 318.956 130 317.182C130 316.788 130 316.394 130 316C130 304.966 121.035 296 110 296C98.9658 296 90 304.966 90 316C90 322.404 93.0545 328.118 97.685 331.764C100.148 333.635 103.005 335.015 106.158 335.606C107.537 335.803 108.818 336 110.098 336Z" fill="#010202"/>
<path d="M110.098 301.616L111.674 306.345C112.167 307.725 113.842 308.414 115.024 307.528L119.261 304.867L117.389 309.498C116.798 310.877 117.684 312.454 119.162 312.651L124.088 313.34L119.655 315.705C118.374 316.395 118.078 318.168 119.064 319.252L122.413 322.995L117.487 321.912C116.009 321.616 114.63 322.7 114.729 324.178L114.926 329.202L111.872 325.262C110.985 324.079 109.211 324.079 108.226 325.262L105.172 329.202L105.369 324.178C105.468 322.7 104.089 321.518 102.611 321.912L97.6846 322.995L101.034 319.252C102.019 318.168 101.724 316.395 100.443 315.705L96.0095 313.34L100.936 312.651C102.413 312.454 103.3 310.877 102.709 309.498L100.837 304.867L105.074 307.528C106.355 308.316 108.029 307.725 108.423 306.345L110.098 301.616Z" fill="white"/>
<path d="M756.098 336C764.867 336 772.355 330.286 775.015 322.404C775.606 320.729 775.902 318.956 776 317.182C776 316.788 776 316.394 776 316C776 304.966 767.035 296 756 296C744.966 296 736 304.966 736 316C736 322.404 739.054 328.118 743.685 331.764C746.148 333.635 749.005 335.015 752.158 335.606C753.537 335.803 754.818 336 756.098 336Z" fill="#010202"/>
<path d="M756.098 301.616L757.674 306.345C758.167 307.725 759.842 308.414 761.024 307.528L765.261 304.867L763.389 309.498C762.798 310.877 763.684 312.454 765.162 312.651L770.088 313.34L765.655 315.705C764.374 316.395 764.078 318.168 765.064 319.252L768.413 322.995L763.487 321.912C762.009 321.616 760.63 322.7 760.729 324.178L760.926 329.202L757.872 325.262C756.985 324.079 755.211 324.079 754.226 325.262L751.172 329.202L751.369 324.178C751.468 322.7 750.089 321.518 748.611 321.912L743.685 322.995L747.034 319.252C748.019 318.168 747.724 316.395 746.443 315.705L742.01 313.34L746.936 312.651C748.413 312.454 749.3 310.877 748.709 309.498L746.837 304.867L751.074 307.528C752.355 308.316 754.029 307.725 754.423 306.345L756.098 301.616Z" fill="white"/>
<path d="M432.5 595C407.23 595 382.855 589.533 360.172 578.799C293.415 547.092 243.572 530.99 173.034 530.99H120.604C116.923 500.477 93.4434 475.926 63 470.957V156.08C90.9562 151.408 113.639 129.74 119.609 102.009H173.034C243.572 102.009 293.415 85.9077 360.172 54.2011C382.855 43.4666 407.13 38 432.5 38C457.77 38 482.145 43.4666 504.828 54.2011C571.585 85.9077 621.428 102.009 691.965 102.009H745.391C751.261 130.138 773.845 151.508 802 156.179V471.056C771.855 476.026 748.176 500.576 744.396 531.09H691.965C621.428 531.09 571.585 547.192 504.828 578.898C482.145 589.533 457.77 595 432.5 595Z" stroke="black" stroke-width="0.75" stroke-miterlimit="10"/>
</g>
<defs>
<filter id="filter0_d_193_134" x="0" y="0" width="866" height="682" filterUnits="userSpaceOnUse" color-interpolation-filters="sRGB">
<feFlood flood-opacity="0" result="BackgroundImageFix"/>
<feColorMatrix in="SourceAlpha" type="matrix" values="0 0 0 0 0 0 0 0 0 0 0 0 0 0 0 0 0 0 127 0" result="hardAlpha"/>
<feOffset dy="25"/>
<feGaussianBlur stdDeviation="25"/>
<feComposite in2="hardAlpha" operator="out"/>
<feColorMatrix type="matrix" values="0 0 0 0 0 0 0 0 0 0 0 0 0 0 0 0 0 0 0.25 0"/>
<feBlend mode="normal" in2="BackgroundImageFix" result="effect1_dropShadow_193_134"/>
<feBlend mode="normal" in="SourceGraphic" in2="effect1_dropShadow_193_134" result="shape"/>
</filter>
</defs>
</svg>
