<svg width="866" height="502" viewBox="0 0 866 502" fill="none" xmlns="http://www.w3.org/2000/svg">
<g filter="url(#filter0_d_186_4113)">
<path d="M816 301.394V144.711C785.692 144.711 760.685 121.628 757.884 92.05C757.784 90.5511 756.484 89.352 754.984 89.352H693.868C623.449 89.352 574.236 72.6644 510.62 42.387C487.113 31.1954 460.807 25 433 25C405.193 25 378.886 31.2953 355.38 42.387C291.763 72.5645 242.55 89.352 172.132 89.352H111.016C109.516 89.352 108.215 90.5511 108.115 92.05C105.315 120.729 81.8081 143.312 52.8005 144.711C51.2001 144.811 50 146.11 50 147.609V298.496C50 300.095 51.2001 301.394 52.8005 301.394C83.7086 302.893 108.415 328.374 108.415 359.65C108.415 361.249 109.715 362.648 111.416 362.648H172.132C242.55 362.648 291.763 379.336 355.38 409.613C378.886 420.805 405.193 427 433 427C460.807 427 487.113 420.705 510.62 409.613C574.236 379.436 623.449 362.648 693.868 362.648H754.584C756.184 362.648 757.584 361.349 757.584 359.65C757.584 327.574 783.792 301.394 816 301.394Z" fill="white" fill-opacity="0.9"/>
<path d="M110.098 247C118.867 247 126.355 241.286 129.015 233.404C129.606 231.729 129.902 229.956 130 228.182C130 227.788 130 227.394 130 227C130 215.966 121.035 207 110 207C98.9658 207 90 215.966 90 227C90 233.404 93.0545 239.118 97.685 242.764C100.148 244.635 103.005 246.015 106.158 246.606C107.537 246.803 108.818 247 110.098 247Z" fill="#010202"/>
<path d="M110.098 212.616L111.674 217.345C112.167 218.725 113.842 219.414 115.024 218.528L119.261 215.867L117.389 220.498C116.798 221.877 117.684 223.454 119.162 223.651L124.088 224.34L119.655 226.705C118.374 227.395 118.078 229.168 119.064 230.252L122.413 233.995L117.487 232.912C116.009 232.616 114.63 233.7 114.729 235.178L114.926 240.202L111.872 236.262C110.985 235.079 109.211 235.079 108.226 236.262L105.172 240.202L105.369 235.178C105.468 233.7 104.089 232.518 102.611 232.912L97.6846 233.995L101.034 230.252C102.019 229.168 101.724 227.395 100.443 226.705L96.0095 224.34L100.936 223.651C102.413 223.454 103.3 221.877 102.709 220.498L100.837 215.867L105.074 218.528C106.355 219.316 108.029 218.725 108.423 217.345L110.098 212.616Z" fill="white"/>
<path d="M756.098 247C764.867 247 772.355 241.286 775.015 233.404C775.606 231.729 775.902 229.956 776 228.182C776 227.788 776 227.394 776 227C776 215.966 767.035 207 756 207C744.966 207 736 215.966 736 227C736 233.404 739.054 239.118 743.685 242.764C746.148 244.635 749.005 246.015 752.158 246.606C753.537 246.803 754.818 247 756.098 247Z" fill="#010202"/>
<path d="M756.098 212.616L757.674 217.345C758.167 218.725 759.842 219.414 761.024 218.528L765.261 215.867L763.389 220.498C762.798 221.877 763.684 223.454 765.162 223.651L770.088 224.34L765.655 226.705C764.374 227.395 764.078 229.168 765.064 230.252L768.413 233.995L763.487 232.912C762.009 232.616 760.63 233.7 760.729 235.178L760.926 240.202L757.872 236.262C756.985 235.079 755.211 235.079 754.226 236.262L751.172 240.202L751.369 235.178C751.468 233.7 750.089 232.518 748.611 232.912L743.685 233.995L747.034 230.252C748.019 229.168 747.724 227.395 746.443 226.705L742.01 224.34L746.936 223.651C748.413 223.454 749.3 221.877 748.709 220.498L746.837 215.867L751.074 218.528C752.355 219.316 754.029 218.725 754.423 217.345L756.098 212.616Z" fill="white"/>
<path d="M432.5 415C407.23 415 382.855 409.533 360.172 398.799C293.415 367.092 243.572 350.99 173.034 350.99H120.604C116.923 320.477 93.4434 295.926 63 290.957V156.08C90.9562 151.408 113.639 129.74 119.609 102.009H173.034C243.572 102.009 293.415 85.9077 360.172 54.2011C382.855 43.4666 407.13 38 432.5 38C457.77 38 482.145 43.4666 504.828 54.2011C571.585 85.9077 621.428 102.009 691.965 102.009H745.391C751.261 130.138 773.845 151.507 802 156.179V291.056C771.855 296.026 748.176 320.576 744.396 351.09H691.965C621.428 351.09 571.585 367.192 504.828 398.898C482.145 409.533 457.77 415 432.5 415Z" stroke="black" stroke-width="0.75" stroke-miterlimit="10"/>
</g>
<defs>
<filter id="filter0_d_186_4113" x="0" y="0" width="866" height="502" filterUnits="userSpaceOnUse" color-interpolation-filters="sRGB">
<feFlood flood-opacity="0" result="BackgroundImageFix"/>
<feColorMatrix in="SourceAlpha" type="matrix" values="0 0 0 0 0 0 0 0 0 0 0 0 0 0 0 0 0 0 127 0" result="hardAlpha"/>
<feOffset dy="25"/>
<feGaussianBlur stdDeviation="25"/>
<feComposite in2="hardAlpha" operator="out"/>
<feColorMatrix type="matrix" values="0 0 0 0 0 0 0 0 0 0 0 0 0 0 0 0 0 0 0.25 0"/>
<feBlend mode="normal" in2="BackgroundImageFix" result="effect1_dropShadow_186_4113"/>
<feBlend mode="normal" in="SourceGraphic" in2="effect1_dropShadow_186_4113" result="shape"/>
</filter>
</defs>
</svg>
