<?xml version="1.0" standalone="no"?>
<!DOCTYPE svg PUBLIC "-//W3C//DTD SVG 20010904//EN"
 "http://www.w3.org/TR/2001/REC-SVG-20010904/DTD/svg10.dtd">
<svg version="1.0" xmlns="http://www.w3.org/2000/svg"
 width="260.000000pt" height="260.000000pt" viewBox="0 0 260.000000 260.000000"
 preserveAspectRatio="xMidYMid meet">
<metadata>
Created by potrace 1.14, written by Peter Selinger 2001-2017
</metadata>
<g transform="translate(0.000000,260.000000) scale(0.100000,-0.100000)"
fill="#000000" stroke="none">
<path d="M1293 2289 c-2 -23 3 -25 10 -4 4 8 3 16 -1 19 -4 3 -9 -4 -9 -15z"/>
<path d="M1294 2215 c-1 -25 2 -45 7 -45 4 0 7 20 6 45 -1 25 -4 45 -7 45 -3
0 -6 -20 -6 -45z"/>
<path d="M1242 2109 c-40 -38 -50 -54 -43 -66 12 -23 2 -50 -21 -56 -18 -5
-19 -11 -13 -54 5 -43 3 -52 -20 -78 -33 -38 -40 -68 -26 -103 6 -15 69 -84
139 -155 l128 -127 33 34 32 33 -98 98 c-112 111 -133 139 -126 166 7 26 50
59 78 59 25 0 64 -38 70 -69 2 -14 -7 -33 -26 -56 -29 -33 -29 -35 -14 -59 29
-44 46 -42 102 18 65 67 70 101 22 158 -28 35 -29 40 -19 75 9 35 8 40 -16 59
-21 17 -25 27 -20 50 6 25 1 35 -31 66 -67 63 -72 63 -131 7z"/>
<path d="M650 2041 c0 -4 11 -20 25 -35 14 -15 25 -29 25 -32 0 -13 92 -124
100 -119 4 3 14 -3 21 -13 13 -15 12 -16 -3 -3 -23 18 -22 2 1 -26 25 -29 30
-29 27 2 -3 28 -34 67 -48 59 -4 -3 -7 0 -6 8 2 7 -3 12 -10 11 -6 -2 -11 0
-11 5 4 22 -3 34 -15 29 -10 -4 -13 -1 -10 7 3 7 -11 27 -30 44 -19 16 -33 32
-32 34 1 1 -6 11 -16 21 -10 9 -18 13 -18 8z"/>
<path d="M1934 2034 c-18 -14 -18 -15 4 -4 12 6 22 13 22 15 0 8 -5 6 -26 -11z"/>
<path d="M1867 1961 c-51 -53 -55 -60 -31 -57 9 1 29 20 45 42 16 21 33 45 39
52 6 6 7 12 3 12 -5 0 -30 -22 -56 -49z"/>
<path d="M1640 1898 c-11 -4 -20 -12 -20 -18 0 -5 -12 -10 -26 -10 -35 0 -81
-50 -82 -89 -1 -27 2 -30 27 -26 39 5 51 -6 53 -47 1 -33 3 -35 31 -34 38 1
87 46 87 79 0 14 7 27 15 31 11 4 15 21 15 60 l0 54 -40 4 c-22 2 -49 0 -60
-4z"/>
<path d="M867 1893 c-14 -13 -7 -100 8 -113 8 -7 15 -22 15 -34 0 -29 55 -76
90 -76 25 0 28 3 24 28 -6 37 16 56 56 50 29 -4 30 -3 28 34 -1 21 -6 38 -13
38 -6 0 -18 12 -25 26 -11 19 -20 24 -37 21 -16 -3 -27 2 -34 14 -7 15 -21 19
-58 19 -26 0 -51 -3 -54 -7z"/>
<path d="M1780 1864 c-18 -21 -27 -40 -23 -52 3 -13 -3 -25 -18 -36 -13 -8
-20 -18 -17 -21 10 -10 90 94 82 107 -4 7 -4 10 1 6 8 -8 35 9 35 22 0 18 -34
3 -60 -26z"/>
<path d="M1279 1839 c-7 -90 -5 -107 12 -117 13 -9 19 -7 25 6 13 31 11 111
-4 117 -8 3 -10 0 -6 -8 5 -8 2 -7 -9 2 -14 11 -17 11 -18 0z"/>
<path d="M850 1776 c0 -2 7 -9 15 -16 9 -7 15 -8 15 -2 0 5 -7 12 -15 16 -8 3
-15 4 -15 2z"/>
<path d="M870 1584 c-39 -38 -71 -78 -75 -93 -11 -53 -2 -65 172 -244 l96 -98
34 33 34 33 -26 23 c-15 12 -23 27 -19 34 4 6 3 8 -3 5 -12 -7 -162 141 -177
174 -12 25 19 70 58 83 22 9 31 5 59 -22 18 -18 36 -32 41 -32 4 0 20 14 36
32 29 31 29 32 10 48 -11 10 -20 21 -20 25 0 5 11 -2 25 -15 l26 -24 24 27
c26 27 33 43 14 31 -6 -3 -33 -8 -60 -10 -38 -2 -51 1 -61 15 -18 25 -52 41
-88 41 -26 0 -45 -13 -100 -66z"/>
<path d="M1585 1638 c-11 -5 -77 -67 -147 -136 l-128 -126 32 -33 32 -33 117
116 c128 126 138 130 187 78 30 -34 28 -57 -9 -99 l-31 -35 25 -26 c22 -22 74
-44 63 -26 -2 4 16 32 41 62 40 49 44 59 40 93 -4 30 -18 51 -64 96 -82 81
-112 95 -158 69z"/>
<path d="M1422 1583 l38 -38 27 27 27 27 -27 -4 c-15 -3 -44 2 -64 10 l-38 16
37 -38z"/>
<path d="M1149 1537 c-41 -41 -93 -95 -117 -119 l-43 -45 31 -33 30 -33 26 28
c27 29 46 27 23 -2 -11 -14 -9 -14 9 2 13 11 19 21 13 23 -6 2 -11 8 -11 14 0
6 7 7 16 4 8 -3 12 -2 9 4 -3 5 30 45 74 88 l79 80 -33 32 -33 32 -73 -75z"/>
<path d="M1255 1496 c-24 -24 -32 -37 -23 -42 7 -5 24 7 45 31 19 22 33 32 33
23 0 -14 40 -58 53 -58 4 0 7 5 7 10 0 14 -55 70 -68 70 -7 0 -28 -15 -47 -34z"/>
<path d="M1005 1479 c-4 -13 -16 -36 -26 -51 -22 -31 -23 -38 -6 -38 7 0 28
16 47 35 l34 35 -21 21 -21 21 -7 -23z"/>
<path d="M1566 1481 c-17 -19 -16 -21 22 -61 22 -22 43 -37 46 -32 4 7 -34 96
-47 109 -2 2 -12 -6 -21 -16z"/>
<path d="M746 1455 c-26 -22 -35 -24 -78 -19 -41 6 -49 4 -55 -12 -10 -27 -23
-33 -51 -23 -21 8 -30 3 -73 -41 -27 -28 -49 -54 -49 -59 0 -5 20 -32 46 -60
40 -44 48 -49 78 -44 27 4 35 1 50 -22 12 -18 23 -25 34 -20 41 16 69 13 98
-11 16 -14 29 -22 30 -17 1 4 5 20 8 35 3 15 13 34 22 42 14 15 14 17 -3 23
-32 11 -63 46 -63 71 0 28 56 85 74 75 6 -3 3 2 -6 13 -10 11 -21 37 -25 57
l-8 37 -29 -25z"/>
<path d="M1820 1455 c0 -15 -9 -40 -21 -56 -17 -24 -18 -29 -5 -29 22 0 66
-47 66 -71 0 -26 -56 -83 -72 -73 -6 4 -2 -8 10 -28 12 -19 22 -45 22 -57 0
-27 6 -27 42 4 19 16 37 23 48 20 48 -15 61 -13 77 11 14 21 22 25 48 20 29
-6 37 -1 78 43 26 28 47 54 47 59 0 4 -23 31 -50 60 -44 44 -54 50 -74 42 -26
-9 -39 -3 -49 23 -6 16 -14 18 -61 12 -40 -5 -56 -4 -62 6 -5 8 -17 20 -26 28
-16 12 -18 11 -18 -14z"/>
<path d="M330 1438 c0 -6 3 -8 7 -5 3 4 12 2 19 -4 8 -6 20 -9 29 -6 8 4 17 1
21 -4 3 -6 15 -9 25 -6 10 3 22 1 25 -4 3 -5 11 -9 17 -9 7 0 6 4 -3 10 -13 8
-12 10 3 10 10 0 17 -7 17 -17 0 -11 3 -14 8 -7 4 6 14 13 22 16 21 8 -55 21
-85 16 -14 -3 -25 -1 -25 4 0 6 -11 7 -24 4 -14 -3 -28 -2 -31 4 -8 14 -25 13
-25 -2z"/>
<path d="M1182 1417 l-32 -33 119 -118 c128 -128 118 -123 163 -70 17 19 14
23 -100 137 l-118 117 -32 -33z"/>
<path d="M1505 1420 c-34 -35 -39 -57 -19 -77 8 -8 14 -11 14 -6 0 5 -5 14
-12 21 -7 7 -10 12 -7 12 12 0 209 -204 215 -222 13 -41 -56 -99 -94 -79 -10
5 -26 19 -36 30 -25 27 -29 27 -66 -7 l-31 -28 60 -57 c50 -48 65 -57 97 -57
32 0 45 9 106 69 96 94 99 127 20 213 -48 52 -212 218 -216 218 -1 0 -15 -14
-31 -30z"/>
<path d="M2286 1438 c3 -5 10 -6 15 -3 13 9 11 12 -6 12 -8 0 -12 -4 -9 -9z"/>
<path d="M2190 1431 c0 -5 -9 -7 -20 -4 -11 3 -35 2 -54 -1 -27 -5 -34 -10
-29 -23 4 -10 8 -12 10 -6 2 6 12 9 21 6 10 -2 37 2 61 11 24 8 51 12 60 9 14
-4 14 -3 1 6 -18 13 -50 14 -50 2z m-43 -17 c-3 -3 -12 -4 -19 -1 -8 3 -5 6 6
6 11 1 17 -2 13 -5z"/>
<path d="M784 1345 c-13 -9 -6 -13 40 -21 53 -10 55 -10 38 6 -9 10 -20 16
-24 13 -5 -2 -8 0 -8 5 0 12 -28 11 -46 -3z"/>
<path d="M1755 1344 c-10 -8 -16 -16 -13 -19 9 -9 68 9 68 20 0 15 -34 14 -55
-1z"/>
<path d="M853 1243 c-85 -102 -83 -129 16 -226 61 -59 74 -67 107 -67 35 0 47
9 176 138 l139 138 -32 33 -31 33 -122 -121 c-67 -66 -125 -121 -130 -121 -14
0 -66 61 -72 86 -5 18 1 31 25 53 17 16 31 33 31 38 0 10 -52 63 -61 63 -3 0
-24 -21 -46 -47z"/>
<path d="M1513 1278 c-3 -7 -1 -8 5 -4 30 18 4 -12 -93 -109 -74 -74 -110
-103 -121 -98 -9 3 3 -13 26 -35 23 -23 44 -42 46 -42 7 0 234 233 234 240 0
9 -63 54 -77 56 -7 1 -16 -3 -20 -8z"/>
<path d="M959 1203 c-4 -35 -12 -69 -19 -83 -13 -25 31 -67 48 -47 7 8 9 17 5
20 -3 4 0 7 9 7 8 0 23 9 33 20 17 19 17 21 -16 55 -32 33 -58 45 -60 28z"/>
<path d="M1581 1175 l-35 -35 34 -32 c18 -18 30 -27 26 -20 -7 11 -4 11 13 0
18 -11 23 -10 38 5 13 13 15 20 5 29 -7 7 -12 26 -12 44 0 20 -6 34 -16 38
-20 8 -13 11 -53 -29z"/>
<path d="M1180 1095 l-33 -34 106 -105 c58 -58 110 -113 115 -123 12 -23 0
-57 -30 -77 -32 -22 -61 -20 -87 7 -35 38 -34 62 4 101 l33 35 -29 30 c-16 17
-33 31 -38 31 -4 0 -31 -25 -60 -55 -62 -68 -68 -105 -22 -157 27 -32 29 -44
16 -95 -4 -17 1 -27 21 -39 21 -15 25 -22 20 -49 -6 -29 -1 -37 44 -79 28 -26
55 -46 59 -44 5 2 32 23 59 46 45 39 50 47 42 68 -12 30 -4 51 22 57 18 5 20
11 14 51 -6 40 -4 49 23 87 33 45 38 68 20 101 -7 12 -69 79 -139 149 l-128
127 -32 -33z"/>
<path d="M1108 1029 l-27 -27 19 -39 c11 -21 22 -47 25 -58 5 -17 9 -16 35 15
16 19 27 37 24 42 -3 4 2 5 10 2 29 -11 17 21 -21 57 l-38 36 -27 -28z"/>
<path d="M1425 1020 c-16 -16 -25 -30 -19 -30 5 0 3 -4 -4 -8 -9 -7 -3 -19 25
-50 34 -37 64 -57 49 -33 -3 5 5 29 19 55 l24 46 -27 25 c-15 14 -29 25 -33
25 -3 0 -18 -13 -34 -30z"/>
<path d="M795 1001 c-22 -15 -68 -44 -103 -65 -36 -22 -59 -42 -56 -48 4 -7 2
-8 -5 -4 -13 8 -111 -50 -111 -66 0 -5 -4 -7 -8 -4 -5 3 -21 -4 -38 -15 -21
-13 -24 -19 -11 -19 9 0 17 5 17 11 0 5 4 8 10 4 5 -3 18 3 29 14 11 11 22 17
25 14 2 -3 40 14 83 38 43 24 114 62 158 85 44 23 78 46 77 51 -2 4 -8 7 -14
5 -5 -1 -7 2 -4 7 14 22 -12 18 -49 -8z m-45 -55 c0 -2 -7 -7 -16 -10 -8 -3
-12 -2 -9 4 6 10 25 14 25 6z m-130 -71 c0 -2 -10 -9 -22 -15 -22 -11 -22 -10
-4 4 21 17 26 19 26 11z"/>
<path d="M1745 1010 c-15 -17 -6 -23 177 -120 106 -57 201 -107 211 -112 11
-5 17 -5 17 1 0 6 -11 13 -25 17 -14 3 -22 11 -18 17 4 6 0 8 -10 4 -10 -3
-17 -2 -17 3 0 15 -79 62 -92 54 -7 -4 -8 -3 -4 4 4 7 -2 16 -16 22 -13 5 -64
37 -115 69 -87 57 -92 59 -108 41z m325 -186 c0 -2 -13 2 -30 11 -16 9 -30 18
-30 21 0 2 14 -2 30 -11 17 -9 30 -18 30 -21z"/>
<path d="M918 899 c-17 -15 -28 -38 -28 -53 0 -17 -5 -26 -15 -26 -13 0 -15
-11 -13 -57 l3 -58 52 -3 c44 -3 53 0 63 18 8 14 17 19 33 15 18 -5 26 0 37
19 7 14 19 26 26 26 7 0 12 12 12 29 -1 15 2 33 6 40 5 8 1 8 -16 2 -46 -17
-75 9 -69 64 0 6 -14 10 -32 11 -22 0 -40 -8 -59 -27z"/>
<path d="M1596 901 c4 -37 -16 -55 -56 -49 -29 4 -30 3 -28 -34 1 -21 6 -38
13 -38 6 0 18 -12 25 -26 11 -19 19 -24 37 -19 16 4 25 -1 33 -15 10 -18 19
-21 63 -18 l52 3 5 46 c7 55 3 69 -16 69 -8 0 -14 10 -14 26 0 35 -47 79 -86
82 -29 2 -31 0 -28 -27z"/>
<path d="M419 763 c-12 -16 -12 -17 2 -6 9 7 20 9 24 5 5 -4 5 -1 1 6 -9 16
-11 15 -27 -5z"/>
<path d="M1096 761 c-19 -30 -94 -283 -89 -298 4 -10 2 -14 -5 -9 -13 8 -27
-33 -15 -45 6 -6 32 48 67 133 31 79 58 148 59 153 2 6 6 16 10 22 5 7 2 22
-6 34 -9 12 -17 16 -21 10z m-3 -76 c-3 -9 -8 -14 -10 -11 -3 3 -2 9 2 15 9
16 15 13 8 -4z m-32 -82 c-12 -20 -14 -14 -5 12 4 9 9 14 11 11 3 -2 0 -13 -6
-23z m-31 -93 c-6 -11 -13 -20 -16 -20 -2 0 0 9 6 20 6 11 13 20 16 20 2 0 0
-9 -6 -20z"/>
<path d="M1487 752 c-16 -17 -13 -27 49 -183 37 -90 67 -165 69 -167 24 -27
-31 184 -89 336 -12 32 -13 32 -29 14z m63 -157 c0 -5 -5 -3 -10 5 -5 8 -10
20 -10 25 0 6 5 3 10 -5 5 -8 10 -19 10 -25z"/>
<path d="M2180 761 c0 -6 4 -13 10 -16 6 -3 7 1 4 9 -7 18 -14 21 -14 7z"/>
<path d="M1617 395 c-4 -8 -2 -15 3 -15 5 0 7 -7 4 -15 -4 -8 -1 -15 4 -15 6
0 9 12 6 27 -6 34 -10 38 -17 18z"/>
<path d="M976 386 c6 -15 4 -17 -6 -11 -9 5 -11 4 -6 -3 4 -7 4 -18 -1 -24
-10 -17 -14 -42 -5 -33 4 4 7 10 7 13 1 4 7 18 14 31 10 17 10 26 1 35 -8 8
-9 6 -4 -8z"/>
</g>
</svg>
