<svg width="32" height="31" viewBox="0 0 32 31" fill="none" xmlns="http://www.w3.org/2000/svg">
<path d="M17.5122 1.08148C18.4574 3.9797 21.9326 5.22181 24.5645 3.59424C25.8731 2.79473 27.4581 4.09392 26.8764 5.50734C25.7132 8.3199 27.5598 11.4609 30.6279 11.8892C32.1547 12.1033 32.5182 14.1021 31.1514 14.8159C28.4177 16.2436 27.778 19.8129 29.8427 22.0686C30.8751 23.1965 29.8428 24.9526 28.3305 24.6385C25.3061 23.996 22.4706 26.3375 22.5869 29.3784C22.6451 30.8918 20.6967 31.5913 19.7515 30.3921C17.8467 27.9935 14.1533 27.9935 12.2485 30.3921C11.3034 31.5913 9.3549 30.8918 9.41307 29.3784C9.52939 26.3375 6.69396 24.0103 3.66949 24.6385C2.15726 24.9526 1.12489 23.1965 2.15728 22.0686C4.2366 19.8129 3.59681 16.2436 0.848615 14.8159C-0.51821 14.1021 -0.154714 12.1033 1.37206 11.8892C4.44014 11.4751 6.28682 8.33418 5.12356 5.50734C4.54194 4.1082 6.12686 2.79473 7.43552 3.59424C10.0528 5.20754 13.5281 3.96543 14.4878 1.08148C14.9676 -0.360493 17.0324 -0.360493 17.5122 1.08148Z" fill="white"/>
</svg>
