<svg width="46" height="37" viewBox="0 0 46 37" fill="none" xmlns="http://www.w3.org/2000/svg">
<path d="M43 3.9434C38.4717 6.06187 34.5902 8.40333 31.2479 11.1908C27.9055 13.9783 25.2103 17.3232 23.054 21.3371H22.946C20.7897 17.3232 18.0945 13.9783 14.7521 11.1908C11.4098 8.40333 7.52829 5.95037 3 3.9434L3.53908 2.60547C6.77357 3.83195 9.57675 5.16993 11.8409 6.50791C14.105 7.8459 16.1537 9.29529 17.8787 10.7448C19.6038 12.3058 21.221 13.8668 22.7305 15.6507C24.2399 13.9783 25.8572 12.3058 27.6901 10.7448C29.523 9.1838 31.5714 7.8459 34.0512 6.50791C36.4231 5.16993 39.2264 3.83195 42.4609 2.60547L43 3.9434ZM43 17.2117C38.4717 19.3302 34.5902 21.6717 31.2479 24.4591C27.9055 27.2466 25.2103 30.5915 23.054 34.6055H22.946C20.7897 30.5915 18.0945 27.2466 14.7521 24.4591C11.4098 21.6717 7.52829 19.2187 3 17.2117L3.53908 15.8737C5.91104 16.7657 8.06737 17.7693 10.0081 18.7727C11.8409 19.7762 13.566 20.7796 15.0754 21.8946C16.5848 23.0096 17.9865 24.1246 19.1725 25.2396C20.4663 26.3546 21.5444 27.6926 22.6225 28.9191C23.7007 27.5811 24.9946 26.3546 26.1805 25.2396C27.4743 24.1246 28.8759 22.8981 30.4932 21.8946C32.1104 20.7796 33.8357 19.7762 35.7764 18.7727C37.717 17.7693 39.8734 16.8772 42.2453 15.8737L43 17.2117Z" fill="white"/>
</svg>
