<svg width="38" height="46" viewBox="0 0 38 46" fill="none" xmlns="http://www.w3.org/2000/svg">
<path d="M4.44339 3C6.56186 7.52829 8.90333 11.4098 11.6908 14.7521C14.4783 18.0945 17.8232 20.7897 21.8371 22.946L21.8371 23.054C17.8232 25.2103 14.4783 27.9055 11.6908 31.2479C8.90333 34.5902 6.45037 38.4717 4.4434 43L3.10547 42.4609C4.33195 39.2264 5.66993 36.4233 7.00791 34.1591C8.3459 31.895 9.79529 29.8463 11.2448 28.1213C12.8058 26.3962 14.3668 24.779 16.1507 23.2695C14.4783 21.7601 12.8058 20.1428 11.2448 18.3099C9.68379 16.477 8.34589 14.4286 7.00791 11.9488C5.66993 9.57685 4.33195 6.77358 3.10547 3.53909L4.44339 3ZM17.7117 3C19.8302 7.52829 22.1717 11.4098 24.9591 14.7521C27.7466 18.0945 31.0915 20.7897 35.1055 22.946L35.1055 23.054C31.0915 25.2103 27.7466 27.9055 24.9591 31.2479C22.1717 34.5902 19.7187 38.4717 17.7117 43L16.3737 42.4609C17.2657 40.089 18.2693 37.9326 19.2727 35.9919C20.2762 34.1591 21.2796 32.434 22.3946 30.9246C23.5096 29.4152 24.6246 28.0135 25.7396 26.8275C26.8546 25.5337 28.1926 24.4556 29.4191 23.3775C28.0811 22.2993 26.8546 21.0054 25.7396 19.8195C24.6246 18.5257 23.3981 17.1241 22.3946 15.5068C21.2796 13.8896 20.2762 12.1643 19.2727 10.2236C18.2693 8.28295 17.3772 6.12662 16.3737 3.75466L17.7117 3Z" fill="white"/>
</svg>
