<svg width="140" height="140" viewBox="0 0 140 140" fill="none" xmlns="http://www.w3.org/2000/svg">
<path d="M70.3 100.7C83.7001 100.7 95.0001 92.1 99.1001 80.1C100 77.6 100.5 74.9 100.7 72.2C100.7 71.6 100.8 71 100.8 70.4C100.8 53.6 87.2001 40 70.4001 40C53.6001 40 40 53.6 40 70.4C40 80.1 44.6 88.8 51.7 94.4C55.4 97.3 59.8001 99.4 64.6001 100.3C66.4001 100.6 68.3 100.7 70.3 100.7Z" fill="black"/>
<path d="M70.3003 48.7002L72.6003 56.0002C73.3003 58.1002 75.8002 59.1002 77.7002 57.9002L84.2002 53.8002L81.3003 60.9002C80.4003 63.0002 81.8002 65.3002 84.0002 65.6002L91.6003 66.6002L84.9004 70.2002C82.9004 71.3002 82.4002 73.9002 84.0002 75.6002L89.1003 81.3002L81.6003 79.7002C79.4003 79.2002 77.3004 81.0002 77.4004 83.2002L77.7002 90.8002L73.0002 84.8002C71.6002 83.0002 68.9002 83.0002 67.5002 84.8002L62.8003 90.8002L63.1003 83.2002C63.2003 80.9002 61.1004 79.2002 58.9004 79.7002L51.4004 81.3002L56.5002 75.6002C58.0002 73.9002 57.5003 71.3002 55.6003 70.2002L48.9004 66.6002L56.5002 65.6002C58.7002 65.3002 60.1002 63.0002 59.2002 60.9002L56.3003 53.8002L62.8003 57.9002C64.7003 59.1002 67.2004 58.2002 67.9004 56.0002L70.3003 48.7002Z" fill="white"/>
</svg>
