<svg width="37" height="46" viewBox="0 0 37 46" fill="none" xmlns="http://www.w3.org/2000/svg">
<path d="M33.0566 43C30.9381 38.4717 28.5967 34.5902 25.8092 31.2478C23.0217 27.9055 19.6768 25.2103 15.6629 23.054V22.946C19.6768 20.7897 23.0217 18.0945 25.8092 14.7521C28.5967 11.4098 31.0496 7.52829 33.0566 3L34.3945 3.53908C33.168 6.77357 31.8301 9.57675 30.4921 11.8409C29.1541 14.105 27.7047 16.1537 26.2552 17.8787C24.6942 19.6038 23.1332 21.221 21.3493 22.7305C23.0217 24.2399 24.6942 25.8572 26.2552 27.6901C27.8162 29.523 29.1541 31.5714 30.4921 34.0512C31.8301 36.4231 33.168 39.2264 34.3945 42.4609L33.0566 43ZM19.7883 43C17.6698 38.4717 15.3283 34.5902 12.5409 31.2478C9.7534 27.9055 6.40847 25.2103 2.39453 23.054V22.946C6.40847 20.7897 9.7534 18.0945 12.5409 14.7521C15.3283 11.4098 17.7813 7.52829 19.7883 3L21.1263 3.53908C20.2343 5.91104 19.2307 8.06737 18.2273 10.0081C17.2238 11.8409 16.2204 13.566 15.1054 15.0754C13.9904 16.5848 12.8754 17.9865 11.7604 19.1725C10.6454 20.4663 9.30741 21.5444 8.08092 22.6225C9.41891 23.7007 10.6454 24.9946 11.7604 26.1805C12.8754 27.4743 14.1019 28.8759 15.1054 30.4932C16.2204 32.1104 17.2238 33.8357 18.2273 35.7764C19.2307 37.717 20.1228 39.8734 21.1263 42.2453L19.7883 43Z" fill="black"/>
</svg>
