<svg width="37" height="46" viewBox="0 0 37 46" fill="none" xmlns="http://www.w3.org/2000/svg">
<path d="M33.0566 3C30.9381 7.52829 28.5967 11.4098 25.8092 14.7521C23.0217 18.0945 19.6768 20.7897 15.6629 22.946L15.6629 23.054C19.6768 25.2103 23.0217 27.9055 25.8092 31.2479C28.5967 34.5902 31.0496 38.4717 33.0566 43L34.3945 42.4609C33.168 39.2264 31.8301 36.4233 30.4921 34.1591C29.1541 31.895 27.7047 29.8463 26.2552 28.1213C24.6942 26.3962 23.1332 24.779 21.3493 23.2695C23.0217 21.7601 24.6942 20.1428 26.2552 18.3099C27.8162 16.477 29.1541 14.4286 30.4921 11.9488C31.8301 9.57685 33.168 6.77358 34.3945 3.53909L33.0566 3ZM19.7883 3C17.6698 7.52829 15.3283 11.4098 12.5409 14.7521C9.7534 18.0945 6.40847 20.7897 2.39453 22.946L2.39453 23.054C6.40847 25.2103 9.7534 27.9055 12.5409 31.2479C15.3283 34.5902 17.7813 38.4717 19.7883 43L21.1263 42.4609C20.2343 40.089 19.2307 37.9326 18.2273 35.9919C17.2238 34.1591 16.2204 32.434 15.1054 30.9246C13.9904 29.4152 12.8754 28.0135 11.7604 26.8275C10.6454 25.5337 9.30741 24.4556 8.08092 23.3775C9.41891 22.2993 10.6454 21.0054 11.7604 19.8195C12.8754 18.5257 14.1019 17.1241 15.1054 15.5068C16.2204 13.8896 17.2238 12.1643 18.2273 10.2236C19.2307 8.28295 20.1228 6.12662 21.1263 3.75466L19.7883 3Z" fill="white"/>
</svg>
