<svg width="429" height="86" viewBox="0 0 429 86" fill="none" xmlns="http://www.w3.org/2000/svg">
<path fill-rule="evenodd" clip-rule="evenodd" d="M227.574 37.3443L227.574 37.3443L227.505 37.2875L223.724 34.68L218.575 31.2252L214.794 28.6177C214.728 28.5851 214.68 28.5524 214.631 28.5198C214.582 28.4871 214.533 28.4545 214.468 28.4219C214.377 28.3764 214.317 28.2993 214.268 28.2347L214.268 28.2346C214.246 28.2066 214.227 28.1809 214.207 28.1612L213.946 27.9005C213.946 27.9005 213.881 27.77 213.816 27.7048C213.685 27.3788 213.751 26.9878 214.076 26.7922C214.053 26.7922 214.148 26.7837 214.327 26.7679C215.135 26.6959 217.643 26.4727 218.444 26.2056C219.357 25.8796 220.269 25.4886 221.117 25.0323C223.92 23.4026 226.006 20.8602 227.049 17.7312C227.44 16.623 227.636 15.4497 227.766 14.2111V13.4287C227.766 5.99733 221.769 0 214.337 0C206.906 0 200.909 5.99733 200.909 13.4287V13.6245V13.625C200.909 14.3419 200.909 15.0587 201.039 15.7755C201.43 18.5786 202.734 21.0558 204.559 22.9462C205.146 23.5329 205.732 24.0543 206.384 24.5106C206.444 24.5502 206.509 24.5957 206.58 24.6454C206.744 24.7597 206.94 24.8961 207.167 25.0323C207.884 25.4886 208.666 26.01 209.318 26.5315C209.481 26.6619 209.66 26.7923 209.839 26.9227C210.019 27.0531 210.198 27.1835 210.361 27.3139C210.411 27.3516 210.464 27.3918 210.519 27.4334L210.519 27.4338C210.748 27.6079 211.01 27.808 211.273 27.9658C211.813 28.3898 212.398 28.8138 213.002 29.2513L213.003 29.2516L213.004 29.2524L213.006 29.2538C213.422 29.5554 213.847 29.8633 214.272 30.1821C215.641 31.1599 218.9 33.637 219.683 34.354C220.4 35.0711 221.052 35.8534 221.508 36.6356C221.964 37.4831 222.225 38.3306 222.225 39.3084C222.225 40.2862 222.029 41.3291 221.508 42.4373C221.312 43.0239 221.312 43.6107 221.443 44.1322C221.573 44.6537 221.899 45.1751 222.225 45.6314C222.551 46.0877 223.007 46.544 223.464 46.9351C223.92 47.3263 224.376 47.7176 224.767 48.1087C224.792 48.1336 224.817 48.149 224.839 48.1621C224.873 48.1833 224.898 48.1986 224.898 48.2389C224.923 48.2638 224.947 48.2792 224.969 48.2923C225.003 48.3137 225.028 48.3291 225.028 48.3694C225.061 48.402 225.093 48.4183 225.126 48.4346C225.158 48.451 225.191 48.4673 225.224 48.4999C225.256 48.5325 225.289 48.5487 225.321 48.565C225.354 48.5812 225.387 48.5975 225.419 48.6301C227.179 49.6731 228.548 49.6732 229.591 49.0865C230.356 48.6562 230.455 47.9103 230.582 46.9517C230.628 46.6033 230.678 46.2268 230.765 45.8271C231.091 44.393 231.09 42.698 230.699 41.1335C230.316 39.6011 228.683 38.2565 227.574 37.3443ZM209.318 9.12628L208.079 5.9974L210.947 7.75759C211.795 8.27909 212.903 7.88778 213.229 6.90996L214.272 3.71583L215.315 6.90996C215.641 7.88778 216.749 8.27909 217.597 7.75759L220.465 5.9974L219.226 9.12628C218.835 10.0389 219.422 11.082 220.465 11.2124L223.79 11.6689L220.791 13.2333C219.878 13.6896 219.683 14.863 220.4 15.5801L222.681 18.0571L219.422 17.34C218.444 17.1444 217.532 17.9266 217.597 18.9044L217.727 22.2943L215.641 19.6216C215.054 18.8393 213.816 18.8393 213.229 19.6216L211.143 22.2943L211.273 18.9044C211.339 17.9266 210.426 17.1444 209.448 17.34L206.189 18.0571L208.47 15.5801C209.122 14.863 208.927 13.6896 208.079 13.2333L205.081 11.6689L208.405 11.2124C209.122 11.082 209.709 10.0389 209.318 9.12628ZM312.51 13.6232C313.683 13.6232 314.726 14.3402 315.118 15.5136L323.331 43.9355L318.116 33.1143C314.922 26.0088 309.055 20.142 301.559 16.5567L300.646 16.1002C299.538 15.5787 298.364 15.3178 297.191 15.3178C296.344 15.3178 295.627 16.0352 295.627 16.8826V81.6139C295.627 82.5917 296.409 83.4392 297.517 83.7L301.689 85.1992H287.934C286.37 85.1992 285.066 83.9607 285.066 82.331V16.9475C285.066 16.1001 284.349 15.3831 283.502 15.3831C282.263 15.3831 281.09 15.644 280.047 16.1655L279.134 16.6216C271.637 20.2069 265.836 26.074 262.642 33.1143L257.426 44.0004L265.575 15.5788C265.901 14.4706 267.009 13.6881 268.182 13.6881C271.311 14.2748 274.571 14.5356 277.83 14.34L284.675 13.9491C288.456 13.7536 292.237 13.7536 296.018 13.9491L302.797 14.34C305.991 14.4704 309.185 14.2748 312.314 13.6881L312.51 13.6232ZM425.089 83.636L428.153 84.8093L429 85.1352H414.92C413.551 85.1352 412.377 84.2879 411.986 82.9841L410.813 79.3988C409.118 74.1186 404.946 69.9464 399.731 68.1212C392.104 65.8396 383.629 66.948 376.98 70.9897L376.98 70.9904C376.915 71.0554 376.85 71.1202 376.85 71.1851L374.699 77.5734C373.851 80.1809 375.22 82.9188 377.958 84.0921L380.435 85.1352H362.313L368.245 82.7234C370.201 82.1368 371.765 80.7677 372.352 79.0076L391.191 22.8809C391.582 21.5772 391.582 20.2082 391.191 18.9044C390.604 17.014 388.844 15.5147 386.693 15.0584L382.195 13.6894L390.605 14.2111C393.082 14.3415 395.494 14.2109 397.905 13.6894C399.274 13.6894 400.448 14.537 400.839 15.8408L421.634 80.1159C422.155 81.6805 423.394 82.9841 425.089 83.636ZM406.576 68.4471C406.836 68.5123 406.967 68.3821 407.032 68.3169C407.06 68.2883 407.076 68.2472 407.091 68.2099C407.109 68.1623 407.126 68.1212 407.162 68.1212L392.821 23.8588L378.023 67.9257C377.958 68.0561 378.023 68.1212 378.089 68.1864C378.154 68.3168 378.414 68.382 378.61 68.2517C382.652 66.296 387.15 65.3182 391.648 65.3182C394.581 65.3182 397.514 65.7093 400.317 66.5567L406.576 68.4471ZM364.464 13.8199L367.398 16.1667C367.919 16.6231 368.18 17.3401 367.919 18.0571L353.708 60.6898L339.041 15.645C338.715 14.602 337.672 13.8199 336.564 13.8199C333.305 14.4066 329.98 14.6674 326.655 14.4718L316.16 13.8199L323.331 15.9061C326.786 16.6231 329.589 19.1652 330.632 22.4898L343.865 63.2321C343.876 63.276 343.887 63.3181 343.898 63.359L343.898 63.3609C343.951 63.5617 343.995 63.7331 343.995 63.9492V82.5277C343.995 83.9618 345.169 85.1352 346.538 85.1352H360.423L356.316 83.4403C355.273 83.2447 354.491 82.2669 354.491 81.1587V68.1864C354.491 65.1226 355.012 62.0588 355.99 59.1254L368.31 22.2943C369.419 19.0349 372.222 16.4926 375.611 15.7756L381.609 13.6894H371.114H364.464V13.8199ZM257.035 83.7649C257.491 83.8953 257.948 84.0258 258.404 84.2214L260.751 85.1339H246.996C245.497 85.1339 244.128 84.4168 243.346 83.113L235.849 70.9884C233.242 66.8164 228.744 64.3391 223.854 64.3391H209.774V82.331C209.774 82.9177 210.165 83.4391 210.752 83.5695L215.25 85.1339H201.169C200.061 85.1339 199.148 84.2212 199.148 83.113V32.9185C201.169 34.483 203.451 35.7217 205.863 36.6343C208.21 37.4818 209.709 39.6982 209.709 42.1753V62.7094H217.727C234.936 62.7094 246.018 53.3877 246.018 39.0464C246.018 33.8966 244.519 28.6163 240.934 24.3139C239.239 22.2931 238.587 19.6856 238.978 17.1433C239.108 16.4262 239.174 15.7092 239.239 14.927C248.43 18.1863 255.145 27.7689 255.145 39.0464C255.145 51.3017 247.322 61.6664 236.696 63.9479H236.827C240.608 64.665 243.932 66.8815 245.823 69.9453L252.016 79.9189C253.189 81.7442 254.949 83.113 257.035 83.7649ZM127.768 80.7013C127.768 82.331 128.876 83.7 130.441 84.0259L132.702 85.0374L138.394 82.7234C140.349 82.1368 141.914 80.7677 142.5 79.0076L161.34 22.8809C161.731 21.5772 161.731 20.2082 161.34 18.9044C160.753 17.014 158.993 15.5147 156.842 15.0584L152.344 13.6894L160.753 14.2111C163.23 14.3415 165.642 14.2109 168.054 13.6894C169.423 13.6894 170.596 14.537 170.988 15.8408L191.782 80.1159C192.304 81.6805 193.542 82.9841 195.237 83.636L198.301 84.8093L199.149 85.1352H185.068C183.699 85.1352 182.526 84.2879 182.135 82.9841L180.961 79.3988C179.266 74.1186 175.094 69.9464 169.879 68.1212C162.252 65.8396 153.778 66.948 147.129 70.9897L147.128 70.99C147.063 71.0551 146.998 71.12 146.998 71.1851L144.847 77.5734C144 80.1809 145.369 82.9188 148.107 84.0921L150.584 85.1352H132.462L132.465 85.1339H120.011C118.511 85.1339 117.273 83.8956 117.273 82.3962V21.1198L95.37 85.1992C94.7181 84.6777 94.2617 84.0258 94.0009 83.2435L76.4003 28.6813V79.593C76.4003 81.0271 77.2477 82.2656 78.5515 82.7871L84.7443 85.1339H66.6837L66.687 85.1352H52.6064C51.2375 85.1352 50.0641 84.2879 49.673 82.9841L48.4996 79.3988C46.8047 74.1186 42.6327 69.9464 37.4177 68.1212C29.7907 65.8396 21.3164 66.948 14.6672 70.9897L14.6669 70.99C14.6019 71.0551 14.5369 71.12 14.5369 71.1851L12.3857 77.5734C11.5382 80.1809 12.9072 82.9188 15.645 84.0921L18.1222 85.1352H0L5.93198 82.7234C7.88762 82.1368 9.45215 80.7677 10.0388 79.0076L28.8782 22.8809C29.2693 21.5772 29.2693 20.2082 28.8782 18.9044C28.2915 17.014 26.5313 15.5147 24.3801 15.0584L19.8822 13.6894L28.2914 14.2111C30.7685 14.3415 33.1804 14.2109 35.5924 13.6894C36.9613 13.6894 38.1347 14.537 38.5258 15.8408L59.3208 80.1159C59.8423 81.6805 61.0809 82.9841 62.7758 83.636L65.8396 84.8093L66.6502 85.121L72.1631 82.5917C73.5972 82.1354 74.575 80.8316 74.575 79.3323V28.2252C74.575 24.8354 74.0535 21.4455 73.0105 18.2513L72.8149 17.5994C72.4238 16.426 71.4461 15.5786 70.2727 15.3178L65.1228 13.6232L72.489 14.34C74.7054 14.4704 76.8566 14.3402 79.0078 13.8839L80.1159 13.6232C81.2893 13.6232 82.3323 14.4054 82.7234 15.5136L99.6722 67.9897L116.425 17.5994C116.686 16.6868 116.165 15.7744 115.317 15.5788L110.493 13.6232L117.664 14.2751C120.141 14.4706 122.618 14.2099 125.03 13.6232C126.53 13.6232 127.768 14.8616 127.768 16.3609V80.7013ZM44.7187 68.3169C44.6535 68.3821 44.5231 68.5123 44.2624 68.4471L38.0045 66.5567C35.2014 65.7093 32.2679 65.3182 29.3345 65.3182C24.8365 65.3182 20.3386 66.296 16.2969 68.2517C16.1014 68.382 15.8406 68.3168 15.7754 68.1864L15.7753 68.1863C15.7101 68.1211 15.645 68.056 15.7101 67.9257L30.5079 23.8588L44.8492 68.1212C44.8492 68.1212 44.7839 68.2517 44.7187 68.3169ZM176.724 68.4471C176.985 68.5123 177.115 68.3821 177.18 68.3169C177.209 68.2883 177.225 68.2472 177.239 68.2099C177.258 68.1623 177.274 68.1212 177.311 68.1212L162.969 23.8588L148.172 67.9257C148.107 68.0561 148.172 68.1212 148.237 68.1864C148.302 68.3168 148.563 68.382 148.758 68.2517C152.8 66.296 157.298 65.3182 161.796 65.3182C164.729 65.3182 167.663 65.7093 170.466 66.5567L176.724 68.4471Z" fill="black"/>
</svg>
