<svg width="141" height="141" viewBox="0 0 141 141" fill="none" xmlns="http://www.w3.org/2000/svg">
<path opacity="0.25" fill-rule="evenodd" clip-rule="evenodd" d="M70.4235 13.8772V0.257324L70.9389 13.9828C70.7328 13.8772 70.6297 13.8772 70.4236 13.8772H70.4235ZM69.5991 13.9824L70.1146 0.36248V13.8768C69.9938 13.8768 69.873 13.913 69.773 13.9431C69.7022 13.9643 69.6418 13.9824 69.5991 13.9824ZM43.4129 40.0612C43.516 40.1667 43.619 40.2723 43.619 40.3779C43.619 40.3779 43.6192 40.589 43.5161 40.6946L43.2068 41.3281L24.8558 17.1502L41.351 37.316V37.6328C41.2479 38.583 41.7633 39.3221 42.5881 39.7444L43.4129 40.0612ZM50.8356 60.7547C51.4542 59.5933 51.8667 58.3263 51.9698 57.0594L54.7533 59.8045L49.8047 64.8724L48.5676 63.6054C49.3924 62.8663 50.1141 62.0217 50.7327 60.9659L50.8356 60.7547ZM20.7318 63.183L1.35003 59.6989L21.6598 62.5496L20.7318 63.183ZM60.0112 65.2945L56.5058 68.8842C58.1554 68.1452 59.3927 66.8782 60.0112 65.2945ZM24.9589 63.1832L24.6496 63.0777C24.7527 63.1832 24.8558 63.1832 24.9589 63.1832ZM40.7323 66.4559L39.9075 66.3502H39.495C39.1858 66.3502 38.8768 66.4558 38.5676 66.5613L38.5672 66.5614L41.1446 66.9838L40.7323 66.4559ZM46.1963 45.2342L46.4027 45.551C46.4027 45.4455 46.2997 45.3401 46.1967 45.2346L46.1963 45.2342ZM47.0211 83.0324C48.0521 81.3431 48.5676 79.2315 48.3614 77.2255L49.8047 75.7473L54.7533 80.8152L53.413 82.1877L48.8769 84.9328L47.0211 83.0324ZM38.0519 66.773L37.7426 67.0897L36.9178 67.9343L41.1448 68.8846C42.3819 69.2013 43.5159 69.6237 44.4438 70.3627L41.5571 67.4064L38.0519 66.773ZM42.0726 88.8393L9.49473 108.161L41.1448 87.8891L42.0726 88.8393ZM0.628418 60.0154L19.8042 64.1331L20.4226 63.6052L0.628418 60.0154ZM55.1658 70.1518L57.64 72.8968C57.1245 71.841 56.2999 70.8908 55.1658 70.1518ZM131.043 108.161L99.4966 87.8891L98.4657 88.8393L131.043 108.161ZM103.62 67.8292L99.3933 68.7794C98.1562 69.0962 97.0222 69.624 96.0944 70.2575L98.9811 67.3013L102.486 66.6678L102.796 66.9846L103.62 67.8292ZM87.2281 82.1877L91.558 84.7216C91.9704 84.6161 92.2797 84.4049 92.589 84.0882L93.6199 83.0324C92.589 81.3431 92.0737 79.3371 92.2799 77.2255L90.8364 75.7473L85.8878 80.8152L87.2281 82.1877ZM120.116 63.6052L139.91 60.0154L120.734 64.1331L120.116 63.6052ZM82.8981 72.8968L85.4755 70.2573L85.3723 70.1518C84.2382 70.8908 83.4136 71.841 82.8981 72.8968ZM62.6915 50.6192L62.3825 50.7248C60.4237 51.4638 58.3616 51.4639 56.5058 50.8304L59.908 54.3145L64.7534 49.3522C64.1349 49.8801 63.4132 50.3025 62.6915 50.6192ZM65.3719 59.8045L70.1144 54.9478C70.0113 57.6929 68.2585 59.6989 66.0935 60.5435L65.3719 59.8045ZM68.8772 35.2046L68.671 42.1729L70.1145 43.651V34.7823C69.7021 34.7823 69.2896 34.9934 68.8772 35.2046ZM41.3509 36.7881L25.2682 17.1502L41.3509 35.4156V36.7881ZM84.3414 90.1066L80.527 86.2002L76.7125 90.1066L78.0528 93.9076L81.1457 97.075L81.3518 97.2861C81.2487 94.541 82.3826 92.0071 84.3414 90.1066ZM98.2591 89.1562L131.353 108.689L97.2282 90.1064L98.2591 89.1562ZM82.1765 105.309L94.5479 140.045L83.4136 104.887H82.4858C82.3248 104.97 82.2895 105.052 82.2327 105.185C82.2167 105.222 82.1991 105.263 82.1765 105.309ZM90.8364 84.8272C90.2178 84.8272 89.5993 84.6161 89.0839 84.0882L88.1561 83.138L90.9396 84.8272H90.8364ZM75.5782 91.2681L77.5372 93.274L76.5062 90.4234L75.5782 91.2681ZM46.4027 140.257L58.6709 105.626L58.6711 105.627C58.8772 105.943 59.0833 106.26 59.3926 106.471L59.5987 106.682L46.4027 140.257ZM80.9395 106.788L94.1354 140.257L81.8672 105.733C81.7641 105.891 81.6353 106.049 81.5065 106.208L81.5064 106.208C81.3775 106.366 81.2487 106.524 81.1456 106.683L80.9395 106.788ZM70.3207 85.8826L69.4959 85.038C70.0114 84.9324 70.5269 84.9324 71.1455 85.038L70.3207 85.8826ZM64.9598 91.2681L64.0318 90.4234L63.0009 93.274L64.9598 91.2681ZM59.3924 96.9688L59.1863 97.1799C59.2894 94.5404 58.1555 92.0065 56.1967 90.0005L60.0111 86.094L63.8256 90.0005L62.4853 93.8014L59.3924 96.9688ZM57.2276 104.887L46.0933 139.94L58.3615 105.309C58.2584 105.204 58.1554 104.993 58.1554 104.887H57.2276ZM43.3098 90.1064L9.1853 108.689L42.2789 89.1562L43.3098 90.1064ZM49.8046 85.883L52.382 83.138L49.083 85.144L49.8046 85.883ZM75.1659 59.8045L74.4443 60.5435C72.2793 59.6989 70.5266 57.6929 70.4235 54.9478L75.1659 59.8045ZM71.6608 35.2046C71.3515 34.9934 70.9389 34.7823 70.4235 34.7823V43.651L71.867 42.1729L71.6608 35.2046ZM99.1873 35.4156L115.27 17.1502L99.2902 36.7881L99.1873 35.4156ZM78.1556 50.7244L77.8466 50.6188C77.0218 50.3021 76.3 49.9853 75.6815 49.4574L80.5269 54.4197L83.9291 50.9355C82.0734 51.4634 80.0114 51.4634 78.1556 50.7244ZM94.1355 45.551L94.3419 45.2342L94.3414 45.2346C94.2385 45.3401 94.1355 45.4455 94.1355 45.551ZM100.631 66.2451H101.043C101.352 66.2451 101.661 66.3507 101.868 66.4563L99.2903 66.8785L99.8057 66.3506L100.631 66.2451ZM115.476 63.1832H115.579H115.579C115.682 63.1832 115.785 63.1832 115.888 63.0777L115.476 63.1832ZM89.9087 60.9659C90.4241 62.0217 91.2488 62.8663 92.0735 63.6054L90.9396 64.8724L85.991 59.8045L88.6716 57.0594C88.7747 58.3263 89.1869 59.5933 89.8055 60.7547L89.9087 60.9659ZM97.9501 39.6388L97.1253 39.9555C96.9192 40.0611 96.9192 40.1667 96.9192 40.2723V40.2723V40.2728C96.9192 40.3782 96.9192 40.4838 97.0221 40.6946L97.3315 41.3281L115.682 17.1502L99.1872 37.316V37.6328C99.2903 38.4775 98.7749 39.3221 97.9501 39.6388ZM84.0324 68.779L80.527 65.1893C81.1456 66.8786 82.3829 68.1455 84.0324 68.779ZM139.291 59.6989L118.981 62.6551C119.291 62.7607 119.6 62.9719 119.909 63.2887L139.291 59.6989ZM90.7336 66.0339L94.8574 70.2571L98.3625 74.0581L97.9502 73.9524L100.734 76.8031C101.662 77.7533 102.28 79.1259 102.383 80.4984V80.5006C102.383 81.0275 102.383 81.4494 102.28 81.9766L101.971 83.5603C101.765 84.0882 101.352 84.6161 100.94 85.0384L94.7542 91.3732C92.4861 93.696 88.8778 93.696 86.6098 91.3732L81.1457 85.7775L85.2695 81.5542L88.3623 84.7216C89.7026 86.0942 91.7643 86.0942 93.1045 84.7216L94.548 83.2435C95.8883 81.8709 95.8883 79.7594 94.548 78.3868L90.7336 74.4803L86.6098 70.2571L81.8673 65.4004L81.1457 64.6614L85.2695 60.4381L90.7336 66.0339ZM80.5271 97.6029L75.063 92.0071L74.3414 91.268L70.2176 87.0448L64.7535 81.4491L60.6297 85.6723L61.3516 86.4113L66.0938 91.268L70.2176 95.4912L74.032 99.3977C75.3723 100.77 75.3723 102.882 74.032 104.254L72.5888 105.733C71.2486 107.105 69.1866 107.105 67.8463 105.733L66.4031 104.254C65.0629 102.882 65.0629 100.77 66.4031 99.3977L69.496 96.2303L65.3722 92.0071L59.9081 97.6029C57.64 99.9256 57.64 103.621 59.9081 105.944L61.3516 107.422C61.7639 107.844 61.9701 108.583 61.867 109.217L61.0422 112.595C60.836 113.651 61.4545 114.707 62.4855 114.918C63.6195 115.129 64.3413 116.291 63.9289 117.452L63.5164 118.613C63.3102 119.352 63.4135 120.091 63.9289 120.619L68.8773 125.37C69.599 126.004 70.6301 126.004 71.3517 125.37L76.3003 120.619C76.8158 120.091 77.0219 119.352 76.7126 118.613L76.3003 117.452C75.8879 116.396 76.6095 115.129 77.7435 114.918C78.7745 114.707 79.4961 113.651 79.1868 112.595L78.3622 109.217C78.2591 108.583 78.3622 107.95 78.8777 107.422L80.3209 105.944C82.7952 103.621 82.7951 99.9256 80.5271 97.6029ZM49.8046 74.4808L45.6808 70.2576L42.2789 66.4567L42.6912 66.5622L39.8044 63.606C38.4642 62.339 37.9487 60.4386 38.258 58.5382L38.5674 56.9545C38.7735 56.4266 39.1859 55.8986 39.5983 55.4763L45.784 49.1415C48.0521 46.8187 51.6603 46.8187 53.9284 49.1415L59.3925 54.7372L55.2687 58.9604L52.1758 55.793C50.8356 54.4205 48.7738 54.4205 47.4336 55.793L45.9901 57.2712C44.6499 58.6437 44.6499 60.7553 45.9901 62.1279L49.8046 66.0343L53.9284 70.2576L59.3925 75.8533L55.2687 80.0765L49.8046 74.4808ZM54.547 69.6233L56.9183 67.0893L59.3925 64.661L60.0111 63.9219L64.1349 59.8043L64.7533 59.0652L69.599 54.2085L65.4752 49.9853L64.8565 50.7243H64.7533L64.6504 50.83L60.0111 55.5811L55.9903 59.8043L54.1348 61.7047L50.4232 65.4L54.547 69.6233ZM79.8053 75.9581L75.7847 80.0757L70.3207 74.48L66.1969 70.2567L61.4544 65.4001L60.7328 64.661L64.7534 60.5433L70.3207 66.1392L74.3413 70.2567L79.8053 75.9581ZM100.837 63.9219C101.868 62.8661 102.486 61.5991 102.486 60.2266C102.486 59.6987 102.486 59.2764 102.383 58.7485L102.074 57.1648L102.074 57.1647C101.765 56.6368 101.455 56.1089 101.043 55.6866L94.8573 49.3518C92.5892 47.029 88.9808 47.029 86.7127 49.3518L81.2486 54.9476L80.527 55.6866L76.4032 59.9099L70.9391 65.5056L75.0629 69.7288L80.527 64.1331L84.6508 59.9099L88.4652 56.0034C89.8055 54.6308 91.8675 54.6308 93.2077 56.0034L94.6509 57.4815C95.9912 58.8541 95.9912 60.9656 94.6509 62.3382L91.5581 65.5056L95.6819 69.7288L98.5686 66.7726L98.1563 66.8781L100.837 63.9219ZM84.5478 80.8152L80.527 84.9328L75.0629 90.6341L70.9391 86.4109L76.4032 80.8152L80.527 76.592L85.1663 71.8408L85.2695 71.7353H85.3724L85.9911 70.9962L90.1149 75.1139L84.5478 80.8152ZM60.0112 43.0174L61.4544 44.4955L65.5782 48.7188L66.0937 49.2467L75.7848 59.1712L79.9086 54.948L74.4445 49.3522L70.3207 45.129L66.5062 41.2225C65.166 39.85 65.166 37.7384 66.5062 36.3658L67.9494 34.8877C69.2897 33.5151 71.3517 33.5151 72.6919 34.8877L74.1351 36.3658C75.4754 37.7384 75.4754 39.85 74.1351 41.2225L71.0423 44.3899L75.1661 48.6131L80.6302 43.0174C82.8983 40.6946 82.8983 36.9993 80.6302 34.6765L79.1867 33.1984C78.7743 32.7761 78.5681 32.037 78.6712 31.4035L79.496 28.0249C79.7022 26.9691 79.0837 25.9133 78.0528 25.7022C76.9188 25.491 76.1969 24.3297 76.6093 23.1683L77.0218 22.0068C77.228 21.2678 77.1248 20.5288 76.6093 20.0009L71.661 15.2497C70.9393 14.6163 69.9082 14.6163 69.1865 15.2497L64.2379 20.0009C63.7225 20.5288 63.5164 21.2678 63.8257 22.0068L64.2379 23.1683C64.6503 24.2241 63.9287 25.491 62.7947 25.7022C61.7638 25.9133 61.0422 26.9691 61.3515 28.0249L62.176 31.4035C62.2791 32.037 62.176 32.6705 61.6606 33.1984L60.2173 34.6765C57.7431 36.8937 57.7431 40.6946 60.0112 43.0174ZM38.155 81.8708C37.8458 80.0759 38.3612 78.1755 39.7015 76.8029L42.485 73.6355L42.0724 73.7411L44.9591 70.7848L49.0829 75.008L45.9901 78.1755C44.6499 79.548 44.6499 81.6597 45.9901 83.0322L49.8046 86.9386L55.9902 80.6038L60.114 76.3806L64.7533 71.6295L64.8565 71.5239L65.5781 70.7848L69.7019 75.008L64.8565 79.9703L64.1349 80.7094L60.0111 84.9326L59.2895 85.6717L53.8254 91.2675C51.5573 93.5902 47.9488 93.5902 45.6808 91.2675L39.4951 84.9326C39.0827 84.5103 38.7735 83.9825 38.4642 83.4546L38.4641 83.4545L38.155 81.8708ZM103.311 60.2274C103.208 61.8111 102.486 63.3948 101.352 64.5562L100.424 65.5064C101.455 65.4008 102.486 65.7176 103.311 66.4566L104.754 67.9347C106.094 69.3073 106.094 71.4189 104.754 72.7915L103.311 74.2696C102.486 75.1142 101.455 75.431 100.424 75.2198L101.352 76.1701C102.486 77.3314 103.208 78.8095 103.311 80.4988C103.311 81.0267 103.311 81.6602 103.208 82.1881C103.929 81.8713 104.548 81.4491 105.064 80.9212L106.507 79.443C106.919 79.0207 107.641 78.8095 108.26 78.9151L111.559 79.7598C112.59 79.9709 113.62 79.3375 113.827 78.2817C114.033 77.1203 115.167 76.3812 116.301 76.8035L117.435 77.2259C118.157 77.437 118.878 77.3314 119.394 76.8035L124.033 71.7357C124.651 70.9966 124.651 69.9408 124.033 69.2017L119.394 64.1339C118.878 63.606 118.157 63.3948 117.435 63.7115L116.301 64.1339C115.27 64.5562 114.033 63.8171 113.827 62.6557C113.62 61.5999 112.59 60.8609 111.559 61.1776L108.26 62.0223C107.641 62.1278 107.022 62.0223 106.507 61.4943L105.064 60.0162C104.548 59.4883 103.929 59.066 103.208 58.7493C103.311 59.066 103.414 59.6995 103.311 60.2274ZM40.0106 75.2192L39.0828 76.1695C37.5364 77.7532 36.9179 79.9703 37.3303 82.082C36.6086 81.7652 35.99 81.3429 35.4745 80.815L34.0313 79.3369C33.5158 78.809 32.8971 78.7034 32.2785 78.809L28.9795 79.6536C27.9486 79.9704 26.9177 79.2313 26.7115 78.1755C26.5053 77.0141 25.2682 76.2751 24.2373 76.6974L23.1031 77.1197C22.3815 77.4364 21.6599 77.2253 21.1444 76.6974L16.5052 71.6295C15.8866 70.8904 15.8866 69.8346 16.5052 69.0956L21.1444 64.0277C21.6599 63.4998 22.3815 63.3942 23.1031 63.6054L24.2373 64.0277C25.3713 64.45 26.5053 63.711 26.7115 62.5496C26.9177 61.4938 27.9486 60.8603 28.9795 61.0714L32.2785 61.9161C32.8971 62.0217 33.6189 61.8105 34.0313 61.3882L35.4745 59.9101C35.99 59.3822 36.6086 58.9598 37.3303 58.6431C36.9179 60.7547 37.5364 62.9719 39.0828 64.5556L40.0106 65.5058C38.9797 65.2946 37.9489 65.6114 37.1241 66.4561L35.6807 67.9342C34.3404 69.3067 34.3404 71.4183 35.6807 72.7909L37.1241 74.269C37.9489 75.008 38.9797 75.3248 40.0106 75.2192ZM47.3306 45.6565V46.5011C48.1553 46.1844 48.98 46.0789 49.8047 46.0789C50.6295 46.0789 51.4543 46.1844 52.176 46.5011C51.7636 46.0788 51.4544 45.4454 51.4544 44.8119V43.3337C51.4544 41.9612 52.4854 40.9054 53.8256 40.9054H55.2688C56.0936 40.9054 56.8154 41.3277 57.2278 41.9612V41.75C56.9185 40.9054 56.7123 39.9552 56.7123 39.005C56.7123 38.1603 56.8153 37.4212 57.1246 36.6822H56.1968C55.7845 36.6822 55.2689 36.471 55.0627 36.0487L53.8256 33.9371C53.4132 33.3036 52.5884 33.0924 51.9698 33.5148C51.3513 34.0427 50.3204 33.7259 50.0111 32.9869L49.7018 32.1422C49.4956 31.6143 48.9802 31.2976 48.4647 31.4031L43.6191 31.5087C42.8974 31.5087 42.382 32.1422 42.382 32.7757L42.279 37.738C42.279 38.2659 42.5883 38.7938 43.0006 39.005L43.8254 39.3217C44.5471 39.6384 44.8564 40.6943 44.3409 41.3277C43.9285 41.9612 44.0315 42.8058 44.7532 43.2282L46.8151 44.4951C47.1244 44.7063 47.3306 45.1286 47.3306 45.6565ZM86.6098 40.6944H85.1663C84.4446 40.6944 83.7229 41.1167 83.3105 41.7502V41.5391C83.9291 39.8498 83.9292 38.0549 83.4137 36.4712H84.3415C84.8569 36.4712 85.2694 36.2601 85.4756 35.8377L86.7127 33.7261C87.1251 32.9871 87.9499 32.8815 88.5685 33.3038C89.187 33.8317 90.2179 33.515 90.5272 32.7759L90.8365 31.9313C91.0427 31.5089 91.5581 31.1922 92.0736 31.1922L96.9193 31.2978C97.5378 31.2978 98.1563 31.8257 98.1563 32.5647L98.2593 37.527C98.3624 38.0549 98.0531 38.5828 97.5377 38.794L96.7129 39.1107C95.9912 39.4275 95.6819 40.4833 96.1974 41.1168C96.6098 41.7503 96.4037 42.5949 95.7851 43.0172L93.7232 44.2842C93.3108 44.4953 93.1045 45.0232 93.1045 45.4455V46.2902C92.2798 45.9734 91.4551 45.8679 90.6304 45.8679C89.8056 45.8679 88.9808 45.9734 88.2591 46.2902C88.6715 45.8679 88.9807 45.2344 88.9807 44.6009V43.1228C88.9807 41.7502 87.95 40.6944 86.6098 40.6944ZM93.2077 94.7522V94.1187C92.383 94.4355 91.5583 94.541 90.7336 94.541C90.0119 94.541 89.2901 94.4354 88.5685 94.2243C88.8777 94.6466 89.0839 95.1745 89.0839 95.7024V97.1805C89.0839 98.5531 88.0529 99.6089 86.7127 99.6089H85.2695C84.4447 99.6089 83.7229 99.1865 83.3105 98.5531V98.9754C83.9291 100.559 83.9293 102.248 83.5169 103.832H84.3415C84.7539 103.832 85.2694 104.043 85.4756 104.466L86.7127 106.577C87.1251 107.211 87.9499 107.422 88.5685 106.999C89.187 106.472 90.2179 106.788 90.5272 107.527L90.8365 108.372C91.0427 108.9 91.5581 109.217 92.0736 109.111L96.9193 109.006C97.6409 109.006 98.1563 108.372 98.1563 107.739L98.2593 102.776C98.2593 102.248 97.95 101.721 97.5377 101.509L96.7129 101.193C95.9912 100.876 95.6819 99.8201 96.1974 99.1866C96.6098 98.5531 96.5068 97.7085 95.7851 97.2861L93.7232 96.0192C93.7065 95.9935 93.6891 95.9671 93.6712 95.94C93.4689 95.6332 93.2077 95.2373 93.2077 94.7522ZM57.3307 98.6583V99.0806C56.9343 99.8925 56.8238 100.802 56.7243 101.622C56.7203 101.655 56.7163 101.687 56.7123 101.72C56.7123 102.459 56.8152 103.093 57.0214 103.832H56.1968C55.6813 103.832 55.2688 104.043 55.0627 104.465L53.8256 106.577C53.4132 107.316 52.5884 107.421 51.9698 106.999C51.3512 106.471 50.3204 106.788 50.0111 107.527L49.7018 108.372C49.4956 108.794 48.9802 109.111 48.4647 109.111L43.619 109.005C43.0005 109.005 42.3819 108.477 42.3819 107.738L42.279 102.776C42.1759 102.248 42.4851 101.72 43.0006 101.509L43.8254 101.192C44.5471 100.875 44.8564 99.8197 44.3409 99.1862C43.9285 98.5527 44.1346 97.7081 44.7532 97.2857L46.8151 96.0188C47.2274 95.8076 47.4337 95.2797 47.4337 94.8573V94.2239C48.2585 94.5406 49.0832 94.6462 49.9079 94.6462C50.6296 94.6462 51.3513 94.5406 52.073 94.3294C51.7637 94.7518 51.5575 95.2797 51.5575 95.8076V97.2857C51.5575 98.6583 52.5883 99.7141 53.9285 99.7141H55.372C56.1968 99.7141 56.9183 99.2917 57.3307 98.6583Z" fill="white"/>
<path fill-rule="evenodd" clip-rule="evenodd" d="M76.0662 69.7062C75.9414 69.1952 75.4095 68.7469 75.0487 68.4427L75.0262 68.4238L73.7953 67.5544L72.1186 66.4025L70.8876 65.5331C70.8664 65.5222 70.8505 65.5113 70.8346 65.5004C70.8187 65.4896 70.8027 65.4787 70.7815 65.4678C70.7519 65.4526 70.7326 65.4269 70.7165 65.4054C70.7094 65.396 70.703 65.3875 70.6966 65.3809L70.6117 65.294C70.6117 65.294 70.5905 65.2504 70.5693 65.2287C70.5268 65.12 70.548 64.9896 70.6542 64.9244C70.6465 64.9244 70.6776 64.9216 70.7356 64.9163C70.9987 64.8923 71.8153 64.8179 72.0761 64.7288C72.3733 64.6202 72.6704 64.4898 72.9463 64.3376C73.8589 63.7943 74.5381 62.9465 74.8777 61.9032C75.005 61.5337 75.0687 61.1425 75.1111 60.7296V60.4687C75.1111 57.9909 73.1586 55.9912 70.7391 55.9912C68.3196 55.9912 66.367 57.9909 66.367 60.4687V60.534V60.5341C66.367 60.7731 66.367 61.0121 66.4094 61.2512C66.5368 62.1858 66.9613 63.0117 67.5555 63.6421C67.7466 63.8377 67.9375 64.0115 68.1498 64.1637C68.1606 64.1711 68.1721 64.1791 68.1842 64.1877L68.2135 64.2086L68.2136 64.2087L68.2139 64.2089C68.2672 64.2469 68.3307 64.2923 68.4045 64.3376C68.638 64.4898 68.8926 64.6636 69.1048 64.8375C69.1579 64.881 69.2162 64.9244 69.2746 64.9679C69.333 65.0114 69.3914 65.0549 69.4444 65.0984L69.495 65.1377L69.4958 65.1383L69.4959 65.1383L69.496 65.1384L69.4961 65.1385C69.5706 65.1965 69.656 65.2632 69.7415 65.3157C69.9173 65.4572 70.1079 65.5986 70.3046 65.7445C70.4404 65.8453 70.5791 65.9482 70.7178 66.0547C71.1635 66.3807 72.2247 67.2066 72.4794 67.4457C72.7129 67.6848 72.9251 67.9456 73.0737 68.2065C73.2222 68.489 73.3071 68.7716 73.3071 69.0976C73.3071 69.4237 73.2435 69.7714 73.0737 70.1409C73.01 70.3365 73.01 70.5321 73.0524 70.706C73.0949 70.8799 73.201 71.0537 73.3071 71.2059C73.4132 71.358 73.5618 71.5102 73.7104 71.6406C73.859 71.771 74.0075 71.9015 74.1349 72.0319C74.143 72.0402 74.1511 72.0453 74.158 72.0497C74.1692 72.0568 74.1773 72.0619 74.1773 72.0753C74.1809 72.079 74.1846 72.0821 74.1881 72.0848C74.1924 72.0881 74.1966 72.0907 74.2004 72.0931C74.2116 72.1002 74.2197 72.1054 74.2197 72.1188C74.2303 72.1297 74.241 72.1351 74.2516 72.1406C74.2568 72.1433 74.2621 72.146 74.2673 72.1493C74.2706 72.1514 74.2738 72.1537 74.2771 72.1565C74.2792 72.1582 74.2813 72.1602 74.2834 72.1623C74.294 72.1732 74.3046 72.1786 74.3152 72.184C74.3259 72.1895 74.3365 72.1949 74.3471 72.2057C74.9201 72.5535 75.3658 72.5535 75.7054 72.3579C75.9544 72.2144 75.9866 71.9657 76.0279 71.6461C76.0429 71.5299 76.0591 71.4044 76.0874 71.2712C76.1935 70.793 76.1935 70.2278 76.0662 69.7062ZM69.1048 59.0341L68.7016 57.9909L69.6354 58.5778C69.9113 58.7517 70.2721 58.6212 70.3782 58.2952L70.7178 57.2302L71.0574 58.2952C71.1636 58.6212 71.5244 58.7517 71.8003 58.5778L72.7341 57.9909L72.3309 59.0341C72.2035 59.3384 72.3945 59.6862 72.7341 59.7297L73.8165 59.8819L72.8402 60.4035C72.5431 60.5557 72.4794 60.9469 72.7128 61.186L73.4557 62.0119L72.3945 61.7728C72.0761 61.7076 71.779 61.9684 71.8003 62.2944L71.8427 63.4247L71.1636 62.5335C70.9725 62.2727 70.5693 62.2727 70.3782 62.5335L69.6991 63.4247L69.7415 62.2944C69.7628 61.9684 69.4657 61.7076 69.1473 61.7728L68.0861 62.0119L68.829 61.186C69.0412 60.9469 68.9775 60.5557 68.7016 60.4035L67.7253 59.8819L68.8077 59.7297C69.0412 59.6862 69.2322 59.3384 69.1048 59.0341ZM102.702 60.5335C103.084 60.5335 103.423 60.7726 103.551 61.1638L106.225 70.6404L104.527 67.0324C103.487 64.6632 101.577 62.7071 99.1362 61.5116L98.8391 61.3594C98.4783 61.1855 98.0963 61.0986 97.7142 61.0986C97.4383 61.0986 97.2049 61.3377 97.2049 61.6203V83.2034C97.2049 83.5294 97.4596 83.812 97.8204 83.8989L99.1787 84.3988H94.7005C94.1911 84.3988 93.7667 83.9859 93.7667 83.4425V61.6419C93.7667 61.3594 93.5332 61.1203 93.2573 61.1203C92.854 61.1203 92.472 61.2073 92.1324 61.3812L91.8353 61.5333C89.3946 62.7287 87.5057 64.6849 86.4657 67.0324L84.7679 70.6621L87.4208 61.1856C87.5269 60.8161 87.8877 60.5552 88.2698 60.5552C89.2885 60.7508 90.3497 60.8377 91.4109 60.7725L93.6393 60.6422C94.8703 60.577 96.1012 60.577 97.3322 60.6422L99.5395 60.7725C100.579 60.816 101.619 60.7508 102.638 60.5552L102.702 60.5335ZM139.355 83.8776L140.352 84.2688L140.628 84.3775H136.044C135.598 84.3775 135.216 84.095 135.089 83.6603L134.707 82.4648C134.155 80.7043 132.797 79.3131 131.099 78.7046C128.616 77.9438 125.857 78.3134 123.692 79.661L123.692 79.6613L123.691 79.6613C123.67 79.6829 123.649 79.7045 123.649 79.7262L122.949 81.8562C122.673 82.7256 123.119 83.6385 124.01 84.0297L124.817 84.3775H118.916L120.848 83.5733C121.484 83.3777 121.994 82.9212 122.185 82.3344L128.318 63.6203C128.446 63.1856 128.446 62.7291 128.318 62.2944C128.127 61.6641 127.554 61.1642 126.854 61.0121L125.39 60.5556L128.127 60.7296C128.934 60.773 129.719 60.7295 130.505 60.5556C130.95 60.5556 131.332 60.8382 131.46 61.2729L138.23 82.7039C138.4 83.2256 138.803 83.6603 139.355 83.8776ZM133.327 78.8132C133.412 78.835 133.455 78.7916 133.476 78.7698C133.485 78.7603 133.49 78.7466 133.495 78.7342C133.501 78.7183 133.506 78.7046 133.518 78.7046L128.849 63.9463L124.031 78.6394C124.01 78.6828 124.031 78.7045 124.053 78.7263L124.053 78.7263C124.074 78.7698 124.159 78.7915 124.222 78.7481C125.538 78.096 127.003 77.77 128.467 77.77C129.422 77.77 130.377 77.9004 131.29 78.1829L133.327 78.8132ZM119.617 60.5991L120.572 61.3816C120.742 61.5338 120.827 61.7728 120.742 62.0119L116.115 76.2268L111.34 61.2077C111.234 60.8599 110.894 60.5991 110.533 60.5991C109.472 60.7947 108.39 60.8817 107.307 60.8165L103.89 60.5991L106.225 61.2947C107.35 61.5338 108.262 62.3814 108.602 63.4899L112.91 77.0744L112.916 77.098L112.921 77.1174C112.938 77.1844 112.953 77.2415 112.953 77.3135V83.5081C112.953 83.9862 113.335 84.3775 113.78 84.3775H118.301L116.964 83.8123C116.624 83.7471 116.37 83.4211 116.37 83.0516V78.7263C116.37 77.7048 116.54 76.6832 116.858 75.7051L120.869 63.4247C121.23 62.3379 122.143 61.4903 123.246 61.2512L125.199 60.5556H121.782H119.617V60.5991ZM84.6405 83.9206C84.789 83.9641 84.9376 84.0076 85.0861 84.0728L85.8502 84.3771H81.372C80.8839 84.3771 80.4382 84.1379 80.1835 83.7032L77.7428 79.6606C76.8939 78.2695 75.4294 77.4435 73.8376 77.4435H69.2534V83.4425C69.2534 83.6381 69.3807 83.812 69.5717 83.8554L71.0361 84.3771H66.4518C66.091 84.3771 65.7939 84.0727 65.7939 83.7032V66.9671C66.4518 67.4887 67.1947 67.9018 67.9799 68.206C68.744 68.4886 69.2321 69.2276 69.2321 70.0535V76.9002H71.8426C77.4457 76.9002 81.0536 73.792 81.0536 69.0103C81.0536 67.2932 80.5655 65.5326 79.3982 64.0981C78.8464 63.4243 78.6341 62.5549 78.7615 61.7072C78.8039 61.4681 78.8252 61.2291 78.8464 60.9682C81.8389 62.055 84.0249 65.2501 84.0249 69.0103C84.0249 73.0965 81.4781 76.5524 78.0187 77.3131H78.0611C79.2921 77.5522 80.3745 78.2912 80.99 79.3128L83.0062 82.6382C83.3882 83.2468 83.9613 83.7032 84.6405 83.9206ZM42.5543 82.8991C42.5543 83.4425 42.9151 83.8989 43.4244 84.0076L44.1606 84.3448L46.0136 83.5733C46.6503 83.3777 47.1597 82.9212 47.3507 82.3344L53.4843 63.6203C53.6117 63.1856 53.6117 62.7291 53.4843 62.2944C53.2933 61.6641 52.7202 61.1642 52.0199 61.0121L50.5555 60.5556L53.2933 60.7296C54.0998 60.773 54.8851 60.7295 55.6703 60.5556C56.116 60.5556 56.4981 60.8382 56.6254 61.2729L63.3957 82.7039C63.5655 83.2256 63.9688 83.6603 64.5206 83.8776L65.5181 84.2688L65.794 84.3775H61.2097C60.764 84.3775 60.382 84.095 60.2546 83.6603L59.8726 82.4648C59.3208 80.7043 57.9625 79.3131 56.2646 78.7046C53.7814 77.9438 51.0224 78.3134 48.8576 79.661L48.8575 79.6611C48.8363 79.6828 48.8151 79.7044 48.8151 79.7262L48.1147 81.8562C47.8388 82.7256 48.2845 83.6385 49.1759 84.0297L49.9824 84.3775H44.0823L44.0833 84.377H40.0287C39.5405 84.377 39.1373 83.9641 39.1373 83.4642V63.0331L32.0062 84.3988C31.794 84.2249 31.6454 84.0076 31.5605 83.7467L25.8301 65.5543V82.5296C25.8301 83.0077 26.106 83.4207 26.5305 83.5946L28.5468 84.377H22.6667L22.6678 84.3775H18.0835C17.6378 84.3775 17.2557 84.095 17.1284 83.6603L16.7464 82.4648C16.1946 80.7043 14.8362 79.3131 13.1384 78.7046C10.6552 77.9438 7.89616 78.3134 5.73136 79.661L5.73127 79.6611C5.71007 79.6828 5.68892 79.7045 5.68892 79.7262L4.98853 81.8562C4.71263 82.7256 5.15832 83.6385 6.04971 84.0297L6.85622 84.3775H0.956055L2.88737 83.5733C3.52408 83.3777 4.03345 82.9212 4.22446 82.3344L10.3581 63.6203C10.4854 63.1856 10.4854 62.7291 10.3581 62.2944C10.1671 61.6641 9.59403 61.1642 8.89365 61.0121L7.42924 60.5556L10.1671 60.7296C10.9736 60.773 11.7588 60.7295 12.5441 60.5556C12.9898 60.5556 13.3718 60.8382 13.4992 61.2729L20.2695 82.7039C20.4393 83.2256 20.8426 83.6603 21.3944 83.8776L22.3919 84.2688L22.6558 84.3727L24.4506 83.5294C24.9175 83.3772 25.2359 82.9425 25.2359 82.4426V65.4022C25.2359 64.272 25.0661 63.1417 24.7265 62.0766L24.6628 61.8593C24.5355 61.4681 24.2172 61.1855 23.8351 61.0986L22.1584 60.5335L24.5567 60.7725C25.2783 60.816 25.9787 60.7726 26.6791 60.6205L27.0399 60.5335C27.4219 60.5335 27.7615 60.7943 27.8888 61.1638L33.4069 78.6607L38.8614 61.8593C38.9463 61.555 38.7765 61.2508 38.5006 61.1856L36.9301 60.5335L39.2647 60.7509C40.0712 60.8161 40.8777 60.7291 41.6629 60.5335C42.1511 60.5335 42.5543 60.9464 42.5543 61.4463V82.8991ZM15.5154 78.7698C15.4942 78.7916 15.4517 78.835 15.3668 78.8132L13.3294 78.1829C12.4168 77.9004 11.4617 77.77 10.5067 77.77C9.04224 77.77 7.57781 78.096 6.26195 78.7481C6.19828 78.7915 6.11337 78.7698 6.09215 78.7263L6.09211 78.7263C6.0709 78.7045 6.04969 78.6828 6.0709 78.6394L10.8887 63.9463L15.5579 78.7046C15.5579 78.7046 15.5366 78.7481 15.5154 78.7698ZM58.493 78.8132C58.5779 78.835 58.6204 78.7916 58.6417 78.7698C58.651 78.7603 58.6562 78.7466 58.6609 78.7342C58.667 78.7183 58.6722 78.7046 58.6841 78.7046L54.0149 63.9463L49.1972 78.6394C49.1759 78.6829 49.1971 78.7046 49.2184 78.7263C49.2396 78.7698 49.3245 78.7915 49.3882 78.7481C50.704 78.096 52.1684 77.77 53.6329 77.77C54.5879 77.77 55.543 77.9004 56.4556 78.1829L58.493 78.8132Z" fill="white"/>
</svg>
