<svg width="140" height="140" viewBox="0 0 140 140" fill="none" xmlns="http://www.w3.org/2000/svg">
<path d="M59.6001 65.5996L56.2 68.9996C57.8 68.2996 59.0001 67.0996 59.6001 65.5996Z" fill="white"/>
<path d="M2.69995 60.2998L21.4999 63.5998C21.7999 63.3998 22.1 63.1998 22.4 62.9998L2.69995 60.2998Z" fill="white"/>
<path d="M25.6001 63.6L25.3 63.5C25.4 63.6 25.5001 63.6 25.6001 63.6Z" fill="white"/>
<path d="M51.8 57.7998C51.7 58.9998 51.3 60.1998 50.7 61.2998L50.6001 61.4998C50.0001 62.4998 49.3 63.2998 48.5 63.9998L49.7 65.1998L54.5 60.3998L51.8 57.7998Z" fill="white"/>
<path d="M40.9001 66.6996L40.1001 66.5996C40.0001 66.5996 39.9 66.5996 39.7 66.5996C39.4 66.5996 39.1 66.6996 38.8 66.7996L41.3 67.1996L40.9001 66.6996Z" fill="white"/>
<path d="M43.7 42C43.7 41.9 43.6 41.8 43.5 41.7L42.7 41.4C41.9 41 41.4 40.3 41.5 39.4V39.1L25.5 20L43.3 42.9C43.4 42.7 43.5001 42.5 43.6001 42.3C43.7001 42.2 43.7 42 43.7 42Z" fill="white"/>
<path d="M46.2 46.5996L46.4001 46.8997C46.4001 46.7997 46.3 46.6996 46.2 46.5996Z" fill="white"/>
<path d="M48.3 76.9C48.5 78.8 48 80.8 47 82.4L48.8 84.2L53.2 81.6L54.5 80.3L49.7 75.5L48.3 76.9Z" fill="white"/>
<path d="M38.3 67C38.2 67.1 38.1 67.2 38 67.3L37.2 68.1L41.3 69C42.5 69.3 43.6 69.7 44.5 70.4L41.7 67.6L38.3 67Z" fill="white"/>
<path d="M10.6001 106.2L42.2 87.9L41.3 87L10.6001 106.2Z" fill="white"/>
<path d="M2 60.5996L20.6001 64.4996L21.2 63.9996L2 60.5996Z" fill="white"/>
<path d="M54.9001 70.2002L57.3 72.8002C56.8 71.8002 56.0001 70.9002 54.9001 70.2002Z" fill="white"/>
<path d="M128.5 106.2L97.9001 87L96.9001 87.9L128.5 106.2Z" fill="white"/>
<path d="M97.8 68.9004L101.9 68.0004L101.1 67.2004C101 67.1004 100.9 67.0004 100.8 66.9004L97.4001 67.5004L94.6001 70.3004C95.5001 69.7004 96.6 69.2004 97.8 68.9004Z" fill="white"/>
<path d="M86 81.6L90.2 84C90.6 83.9 90.9 83.7 91.2 83.4L92.2 82.4C91.2 80.8 90.7001 78.9 90.9001 76.9L89.5 75.5L84.7 80.3L86 81.6Z" fill="white"/>
<path d="M137.1 60.5996L117.9 63.9996L118.5 64.4996L137.1 60.5996Z" fill="white"/>
<path d="M81.8 72.8002L84.3 70.3002L84.2 70.2002C83.1 70.9002 82.3 71.8002 81.8 72.8002Z" fill="white"/>
<path d="M69.4001 4.09961L68.9001 16.9996C69.0001 16.9996 69.2001 16.8997 69.4001 16.8997V4.09961Z" fill="white"/>
<path d="M62.2 51.7L61.9001 51.8C60.0001 52.5 58 52.5 56.2 51.9L59.5 55.2L64.2 50.5C63.6 51 62.9 51.4 62.2 51.7Z" fill="white"/>
<path d="M69.4001 55.7998L64.8 60.3998L65.5 61.0998C67.6 60.2998 69.3001 58.3998 69.4001 55.7998Z" fill="white"/>
<path d="M68.2 37.1002L68 43.7002L69.4001 45.1002V36.7002C69.0001 36.7002 68.6 36.9002 68.2 37.1002Z" fill="white"/>
<path d="M25.9001 20L41.5 38.6V37.3L25.9001 20Z" fill="white"/>
<path d="M83.2 89.1003L79.5 85.4004L75.8 89.1003L77.1001 92.7004L80.1001 95.7004C80.2001 95.8004 80.2 95.8004 80.3 95.9004C80.2 93.3004 81.3 90.9003 83.2 89.1003Z" fill="white"/>
<path d="M128.8 106.7L96.7 88.2002L95.7 89.1002L128.8 106.7Z" fill="white"/>
<path d="M81.1001 103.5L93.1001 136.4L82.3 103.1H81.4001C81.2001 103.2 81.2001 103.3 81.1001 103.5Z" fill="white"/>
<path d="M87.8 83.4C88.3 83.9 88.9 84.1 89.5 84.1H89.6001L86.9001 82.5L87.8 83.4Z" fill="white"/>
<path d="M74.7 90.2004L76.6001 92.1003L75.6001 89.4004L74.7 90.2004Z" fill="white"/>
<path d="M58.3 103.8L46.4001 136.6L59.2 104.8L59 104.6C58.7 104.4 58.5 104.1 58.3 103.8Z" fill="white"/>
<path d="M79.9001 104.9L92.7 136.6L80.8 103.9C80.6 104.2 80.3001 104.5 80.1001 104.8L79.9001 104.9Z" fill="white"/>
<path d="M68.8 84.2996L69.6001 85.0996L70.4001 84.2996C69.8001 84.1996 69.3 84.1996 68.8 84.2996Z" fill="white"/>
<path d="M64.4001 90.2004L63.5 89.4004L62.5 92.1003L64.4001 90.2004Z" fill="white"/>
<path d="M58.8 95.7998C58.9 95.6998 58.9 95.6998 59 95.5998L62 92.5998L63.3 88.9998L59.6001 85.2998L55.9001 88.9998C57.8001 90.8998 58.9 93.2998 58.8 95.7998Z" fill="white"/>
<path d="M56.9001 103.1L46.1001 136.3L58 103.5C57.9 103.4 57.8 103.2 57.8 103.1H56.9001Z" fill="white"/>
<path d="M10.3 106.7L43.4001 89.1002L42.4001 88.2002L10.3 106.7Z" fill="white"/>
<path d="M49.7 85.1L52.2 82.5L49 84.4L49.7 85.1Z" fill="white"/>
<path d="M73.6001 61.0998L74.3 60.3998L69.7 55.7998C69.8 58.3998 71.5001 60.2998 73.6001 61.0998Z" fill="white"/>
<path d="M70.9001 37.1002C70.6001 36.9002 70.2 36.7002 69.7 36.7002V45.1002L71.1001 43.7002L70.9001 37.1002Z" fill="white"/>
<path d="M113.2 20L97.6001 37.3L97.7 38.6L113.2 20Z" fill="white"/>
<path d="M77.2 51.7996L76.9001 51.6996C76.1001 51.3996 75.4 51.0996 74.8 50.5996L79.5 55.2996L82.8 51.9996C81 52.4996 79 52.4996 77.2 51.7996Z" fill="white"/>
<path d="M69.7 4V16.9C69.9 16.9 70 16.9 70.2 17L69.7 4Z" fill="white"/>
<path d="M92.7 46.8997L92.9001 46.5996C92.8001 46.6996 92.7 46.7997 92.7 46.8997Z" fill="white"/>
<path d="M99.4001 66.5C99.3001 66.5 99.2 66.5 99 66.5L98.2 66.6L97.7 67.1L100.2 66.7C100 66.6 99.7001 66.5 99.4001 66.5Z" fill="white"/>
<path d="M113.8 63.5L113.4 63.6H113.5C113.6 63.6 113.7 63.6 113.8 63.5Z" fill="white"/>
<path d="M90.7 63.9998C89.9 63.2998 89.1001 62.4998 88.6001 61.4998L88.5 61.2998C87.9 60.1998 87.5001 58.9998 87.4001 57.7998L84.8 60.3998L89.6001 65.1998L90.7 63.9998Z" fill="white"/>
<path d="M96.4001 41.3L95.6001 41.6C95.4001 41.7 95.4001 41.8 95.4001 41.9C95.4001 42 95.4 42.1 95.5 42.3C95.6 42.5 95.7 42.7 95.8 42.9L113.6 20L97.6001 39.1V39.4C97.7001 40.2 97.2001 41 96.4001 41.3Z" fill="white"/>
<path d="M82.9001 68.9L79.5 65.5C80.1 67.1 81.3001 68.3 82.9001 68.9Z" fill="white"/>
<path d="M136.5 60.2998L116.8 63.0998C117.1 63.1998 117.4 63.3998 117.7 63.6998L136.5 60.2998Z" fill="white"/>
<path d="M93.4001 70.3L89.4001 66.3L84.1001 61L80.1001 65L80.8 65.7L85.4001 70.3L89.4001 74.3L93.1001 78C94.4001 79.3 94.4001 81.3 93.1001 82.6L91.7 84C90.4 85.3 88.4001 85.3 87.1001 84L84.1001 81L80.1001 85L85.4001 90.3C87.6001 92.5 91.1 92.5 93.3 90.3L99.3 84.3C99.7 83.9 100.1 83.4 100.3 82.9L100.6 81.4C100.7 80.9 100.7 80.5 100.7 80C100.6 78.7 100 77.4 99.1001 76.5L96.4001 73.8L96.8 73.9L93.4001 70.3Z" fill="white"/>
<path d="M79.5001 96.2004L74.2 90.9004L73.5001 90.2004L69.5001 86.2004L64.2 80.9004L60.2 84.9004L60.9002 85.6003L65.5001 90.2004L69.5001 94.2004L73.2 97.9004C74.5 99.2004 74.5 101.2 73.2 102.5L71.8001 103.9C70.5001 105.2 68.5 105.2 67.2 103.9L65.8001 102.5C64.5001 101.2 64.5001 99.2004 65.8001 97.9004L68.8001 94.9004L64.8001 90.9004L59.5001 96.2004C57.3001 98.4004 57.3001 101.9 59.5001 104.1L60.9002 105.5C61.3002 105.9 61.5002 106.6 61.4002 107.2L60.6002 110.4C60.4002 111.4 61.0001 112.4 62.0001 112.6C63.1001 112.8 63.8002 113.9 63.4002 115L63.0001 116.1C62.8001 116.8 62.9002 117.5 63.4002 118L68.2 122.5C68.9 123.1 69.9002 123.1 70.6002 122.5L75.4002 118C75.9002 117.5 76.1001 116.8 75.8001 116.1L75.4002 115C75.0002 114 75.7001 112.8 76.8001 112.6C77.8001 112.4 78.5 111.4 78.2 110.4L77.4002 107.2C77.3002 106.6 77.4002 106 77.9002 105.5L79.3001 104.1C81.7001 101.9 81.7001 98.4004 79.5001 96.2004Z" fill="white"/>
<path d="M45.6999 70.3004L49.6999 74.3004L54.9999 79.6004L58.9999 75.6004L53.6999 70.3004L49.6999 66.3004L45.9999 62.6004C44.6999 61.3004 44.6999 59.3004 45.9999 58.0004L47.4 56.6004C48.7 55.3004 50.6999 55.3004 51.9999 56.6004L54.9999 59.6004L58.9999 55.6004L53.6999 50.3004C51.4999 48.1004 48 48.1004 45.8 50.3004L39.8 56.3004C39.4 56.7004 39 57.2004 38.8 57.7004L38.4999 59.2004C38.1999 61.0004 38.6999 62.8004 39.9999 64.0004L42.8 66.8004L42.4 66.7004L45.6999 70.3004Z" fill="white"/>
<path d="M54.3 69.6996L56.6001 67.2996L59 64.9996L59.6001 64.2996L63.6001 60.3997L64.2 59.6996L68.9001 55.0996L64.9001 51.0996L64.3 51.7996H64.2L64.1001 51.8997L59.6001 56.3997L55.7 60.3997L53.9001 62.1996L50.3 65.6996L54.3 69.6996Z" fill="white"/>
<path d="M74.9001 79.5996L78.8 75.6996L73.5 70.2996L69.6001 66.3997L64.2 61.0996L60.3 64.9996L61 65.6996L65.6001 70.2996L69.6001 74.2996L74.9001 79.5996Z" fill="white"/>
<path d="M99.2 64.2996C100.2 63.2996 100.8 62.0996 100.8 60.7996C100.8 60.2996 100.8 59.8996 100.7 59.3996L100.4 57.8996C100.1 57.3996 99.8001 56.8996 99.4001 56.4996L93.4001 50.4996C91.2001 48.2996 87.7 48.2996 85.5 50.4996L80.2 55.7996L79.5 56.4996L75.5 60.4996L70.2 65.7996L74.2 69.7996L79.5 64.4996L83.5 60.4996L87.2 56.7996C88.5 55.4996 90.5 55.4996 91.8 56.7996L93.2 58.1996C94.5 59.4996 94.5 61.4996 93.2 62.7996L90.2 65.7996L94.2 69.7996L97 66.9996L96.6001 67.0996L99.2 64.2996Z" fill="white"/>
<path d="M79.5 84.2L83.4001 80.3L88.8 74.9L84.8 71L84.2 71.7H84.1001L84 71.8L79.5 76.3L75.5 80.3L70.2 85.6L74.2 89.6L79.5 84.2Z" fill="white"/>
<path d="M59.6002 44.5L61.0001 45.9L65.0001 49.9L65.5001 50.4L74.9003 59.8L78.9003 55.8L73.6002 50.5L69.6002 46.5L65.9003 42.8C64.6003 41.5 64.6003 39.5 65.9003 38.2L67.3002 36.8C68.6002 35.5 70.6003 35.5 71.9003 36.8L73.3002 38.2C74.6002 39.5 74.6002 41.5 73.3002 42.8L70.3002 45.8L74.3002 49.8L79.6002 44.5C81.8002 42.3 81.8002 38.8 79.6002 36.6L78.2001 35.2C77.8001 34.8 77.6001 34.1 77.7001 33.5L78.5001 30.3C78.7001 29.3 78.1002 28.3 77.1002 28.1C76.0002 27.9 75.3001 26.8 75.7001 25.7L76.1002 24.6C76.3002 23.9 76.2001 23.2 75.7001 22.7L70.9003 18.2C70.2003 17.6 69.2001 17.6 68.5001 18.2L63.7001 22.7C63.2001 23.2 63.0002 23.9 63.3002 24.6L63.7001 25.7C64.1001 26.7 63.4002 27.9 62.3002 28.1C61.3002 28.3 60.6003 29.3 60.9003 30.3L61.7001 33.5C61.8001 34.1 61.7001 34.7 61.2001 35.2L59.8002 36.6C57.4002 38.7 57.4002 42.3 59.6002 44.5Z" fill="white"/>
<path d="M39.9 76.4998C38.6 77.7998 38.1 79.5998 38.4 81.2998L38.6999 82.7998C38.9999 83.2998 39.2999 83.7998 39.6999 84.1998L45.6999 90.1998C47.8999 92.3998 51.4 92.3998 53.6 90.1998L58.9 84.8998L59.6 84.1998L63.6 80.1998L64.3 79.4998L68.9999 74.7998L64.9999 70.7998L64.3 71.4998L64.1999 71.5998L59.6999 76.0998L55.6999 80.0998L49.6999 86.0998L45.9999 82.3998C44.6999 81.0998 44.6999 79.0998 45.9999 77.7998L48.9999 74.7998L44.9999 70.7998L42.1999 73.5998L42.6 73.4998L39.9 76.4998Z" fill="white"/>
<path d="M101.6 60.8004C101.5 62.3004 100.8 63.8004 99.7 64.9004L98.8 65.8004C99.8 65.7004 100.8 66.0004 101.6 66.7004L103 68.1003C104.3 69.4003 104.3 71.4004 103 72.7004L101.6 74.1003C100.8 74.9003 99.8 75.2004 98.8 75.0004L99.7 75.9004C100.8 77.0004 101.5 78.4004 101.6 80.0004C101.6 80.5004 101.6 81.1003 101.5 81.6003C102.2 81.3003 102.8 80.9004 103.3 80.4004L104.7 79.0004C105.1 78.6004 105.8 78.4004 106.4 78.5004L109.6 79.3004C110.6 79.5004 111.6 78.9004 111.8 77.9004C112 76.8004 113.1 76.1004 114.2 76.5004L115.3 76.9004C116 77.1004 116.7 77.0004 117.2 76.5004L121.7 71.7004C122.3 71.0004 122.3 70.0004 121.7 69.3004L117.2 64.5004C116.7 64.0004 116 63.8003 115.3 64.1003L114.2 64.5004C113.2 64.9004 112 64.2003 111.8 63.1003C111.6 62.1003 110.6 61.4004 109.6 61.7004L106.4 62.5004C105.8 62.6004 105.2 62.5004 104.7 62.0004L103.3 60.6003C102.8 60.1003 102.2 59.7004 101.5 59.4004C101.6 59.7004 101.7 60.3004 101.6 60.8004Z" fill="white"/>
<path d="M39.3001 75.8998L40.2 74.9998C39.2 75.0998 38.2002 74.7998 37.4002 74.0998L36 72.6998C34.7001 71.3998 34.7001 69.3998 36 68.0998L37.4002 66.6998C38.2002 65.8998 39.2 65.5998 40.2 65.7998L39.3001 64.8998C37.8001 63.3998 37.2001 61.2998 37.6001 59.2998C36.9001 59.5998 36.3001 59.9998 35.8001 60.4998L34.4002 61.8998C34.0002 62.2998 33.3 62.4998 32.7 62.3998L29.5 61.5998C28.5 61.3998 27.5001 61.9998 27.3001 62.9998C27.1001 64.0998 26.0002 64.7998 24.9002 64.3998L23.8001 63.9998C23.1001 63.7998 22.4002 63.8998 21.9002 64.3998L17.4002 69.1998C16.8002 69.8998 16.8002 70.8998 17.4002 71.5998L21.9002 76.3998C22.4002 76.8998 23.1001 77.0998 23.8001 76.7998L24.9002 76.3998C25.9002 75.9998 27.1001 76.6998 27.3001 77.7998C27.5001 78.7998 28.5 79.4998 29.5 79.1998L32.7 78.3998C33.3 78.2998 33.9002 78.3998 34.4002 78.8998L35.8001 80.2998C36.3001 80.7998 36.9001 81.1998 37.6001 81.4998C37.2001 79.4998 37.8001 77.3998 39.3001 75.8998Z" fill="white"/>
<path d="M47.3 46.9996V47.7996C48.1 47.4996 48.9 47.3997 49.7 47.3997C50.5 47.3997 51.3 47.4996 52 47.7996C51.6 47.3996 51.3 46.7996 51.3 46.1996V44.7996C51.3 43.4996 52.3001 42.4996 53.6001 42.4996H55C55.8 42.4996 56.5001 42.8996 56.9001 43.4996V43.2996C56.6001 42.4996 56.4001 41.5996 56.4001 40.6996C56.4001 39.8996 56.5 39.1996 56.8 38.4996H55.9001C55.5001 38.4996 55 38.2997 54.8 37.8997L53.6001 35.8997C53.2001 35.2997 52.4 35.0996 51.8 35.4996C51.2 35.9996 50.2001 35.6996 49.9001 34.9996L49.6001 34.1996C49.4001 33.6996 48.9001 33.3996 48.4001 33.4996L43.7 33.5996C43 33.5996 42.5 34.1996 42.5 34.7996L42.4001 39.4996C42.4001 39.9996 42.7001 40.4996 43.1001 40.6996L43.9001 40.9996C44.6001 41.2996 44.9001 42.2997 44.4001 42.8997C44.0001 43.4997 44.1 44.2996 44.8 44.6996L46.8 45.8997C47.1 46.0997 47.3 46.4996 47.3 46.9996Z" fill="white"/>
<path d="M84 42.2998H85.4001C86.7001 42.2998 87.7 43.2998 87.7 44.5998V45.9998C87.7 46.5998 87.4 47.1998 87 47.5998C87.7 47.2998 88.5 47.1998 89.3 47.1998C90.1 47.1998 90.9 47.2998 91.7 47.5998V46.7998C91.7 46.3998 91.9 45.8998 92.3 45.6998L94.3 44.4998C94.9 44.0998 95.1 43.2998 94.7 42.6998C94.2 42.0998 94.5 41.0998 95.2 40.7998L96 40.4998C96.5 40.2998 96.8 39.7998 96.7 39.2998L96.6001 34.5998C96.6001 33.8998 96.0001 33.3998 95.4001 33.3998L90.7 33.2998C90.2 33.2998 89.7 33.5998 89.5 33.9998L89.2 34.7998C88.9 35.4998 87.9 35.7998 87.3 35.2998C86.7 34.8998 85.9 34.9998 85.5 35.6998L84.3 37.6998C84.1 38.0998 83.7 38.2998 83.2 38.2998H82.3C82.8 39.7998 82.8 41.4998 82.2 43.0998V43.2998C82.6 42.6998 83.3 42.2998 84 42.2998Z" fill="white"/>
<path d="M91.8 93.5004V92.9004C91 93.2004 90.2001 93.3004 89.4001 93.3004C88.7001 93.3004 88 93.2004 87.3 93.0004C87.6 93.4004 87.8 93.9004 87.8 94.4004V95.8004C87.8 97.1004 86.8 98.1003 85.5 98.1003H84.1001C83.3001 98.1003 82.6 97.7003 82.2 97.1003V97.5004C82.8 99.0004 82.8001 100.6 82.4001 102.1H83.2C83.6 102.1 84.1 102.3 84.3 102.7L85.5 104.7C85.9 105.3 86.7 105.5 87.3 105.1C87.9 104.6 88.9 104.9 89.2 105.6L89.5 106.4C89.7 106.9 90.2 107.2 90.7 107.1L95.4001 107C96.1001 107 96.6001 106.4 96.6001 105.8L96.7 101.1C96.7 100.6 96.4 100.1 96 99.9004L95.2 99.6003C94.5 99.3003 94.2 98.3004 94.7 97.7004C95.1 97.1004 95 96.3004 94.3 95.9004L92.3 94.7004C92.1 94.4004 91.8 94.0004 91.8 93.5004Z" fill="white"/>
<path d="M57.0001 97.6V97.2C56.6001 97.8 55.9002 98.2 55.1002 98.2H53.7001C52.4001 98.2 51.4003 97.2 51.4003 95.9V94.5C51.4003 94 51.6003 93.5 51.9003 93.1C51.2003 93.3 50.5002 93.4 49.8002 93.4C49.0002 93.4 48.2003 93.3 47.4003 93V93.6C47.4003 94 47.2002 94.5 46.8002 94.7L44.8002 95.9C44.2002 96.3 44.0003 97.1 44.4003 97.7C44.9003 98.3 44.6003 99.3 43.9003 99.6L43.1002 99.9C42.6002 100.1 42.3003 100.6 42.4003 101.1L42.5001 105.8C42.5001 106.5 43.1001 107 43.7001 107L48.4003 107.1C48.9003 107.1 49.4002 106.8 49.6002 106.4L49.9003 105.6C50.2003 104.9 51.2002 104.6 51.8002 105.1C52.4002 105.5 53.2002 105.4 53.6002 104.7L54.8002 102.7C55.0002 102.3 55.4003 102.1 55.9003 102.1H56.7001C56.5001 101.4 56.4003 100.8 56.4003 100.1C56.5003 99.3 56.6001 98.4 57.0001 97.6Z" fill="white"/>
</svg>
