<svg width="61" height="61" viewBox="0 0 61 61" fill="none" xmlns="http://www.w3.org/2000/svg">
<path d="M30.3 60.7C43.7001 60.7 55.0001 52.1 59.1001 40.1C60.0001 37.6 60.5 34.9 60.7 32.2C60.7 31.6 60.8 31 60.8 30.4C60.8 13.6 47.2001 0 30.4001 0C13.6001 0 0 13.6 0 30.4C0 40.1 4.59995 48.8 11.7 54.4C15.4 57.3 19.8001 59.4 24.6001 60.3C26.4001 60.6 28.3 60.7 30.3 60.7Z" fill="black"/>
<path d="M30.3003 8.7002L32.6003 16.0002C33.3003 18.1002 35.8002 19.1002 37.7002 17.9002L44.2002 13.8002L41.3003 20.9002C40.4003 23.0002 41.8002 25.3002 44.0002 25.6002L51.6003 26.6002L44.9004 30.2002C42.9004 31.3002 42.4002 33.9002 44.0002 35.6002L49.1003 41.3002L41.6003 39.7002C39.4003 39.2002 37.3004 41.0002 37.4004 43.2002L37.7002 50.8002L33.0002 44.8002C31.6002 43.0002 28.9002 43.0002 27.5002 44.8002L22.8003 50.8002L23.1003 43.2002C23.2003 40.9002 21.1004 39.2002 18.9004 39.7002L11.4004 41.3002L16.5002 35.6002C18.0002 33.9002 17.5003 31.3002 15.6003 30.2002L8.90039 26.6002L16.5002 25.6002C18.7002 25.3002 20.1002 23.0002 19.2002 20.9002L16.3003 13.8002L22.8003 17.9002C24.7003 19.1002 27.2004 18.2002 27.9004 16.0002L30.3003 8.7002Z" fill="white"/>
</svg>
