<svg width="60" height="60" viewBox="0 0 60 60" fill="none" xmlns="http://www.w3.org/2000/svg">
<g clip-path="url(#clip0_768_35)">
<path fill-rule="evenodd" clip-rule="evenodd" d="M24.3037 35.4805L14.3973 54.3204L17.9377 56.182L29.5953 34.0117C32.9205 33.8535 36.2822 35.0319 38.7873 37.5369L38.7936 37.5433L38.8 37.5496C45.171 43.8068 55.4275 43.8249 61.7155 37.5369L58.8871 34.7085C54.1771 39.4185 46.4384 39.4386 41.6089 34.7017C38.841 31.937 35.3053 30.3932 31.6709 30.0644L35.6999 22.4022C36.8161 22.9653 37.8603 23.7106 38.7873 24.6375L38.7936 24.6439L38.8 24.6502C45.171 30.9074 55.4275 30.9255 61.7155 24.6375L58.8871 21.8091C54.1771 26.5191 46.4384 26.5392 41.6089 21.8023C40.39 20.5848 39.0222 19.6041 37.5627 18.8596L44.9231 4.86162L41.3827 3L33.7626 17.4919C28.5297 16.3216 22.8073 17.7624 18.7 21.7964L18.6935 21.8028L18.687 21.8092L18.0873 22.409L18.0872 22.4092C13.3751 27.121 5.63184 27.1391 0.802832 22.3964L-2 25.2501C4.37094 31.5073 14.6277 31.5255 20.9157 25.2375L20.9159 25.2373L21.5091 24.644C24.3414 21.8661 28.1743 20.7243 31.8101 21.2051L27.0251 30.3052C23.9817 30.9018 21.0716 32.3665 18.7 34.6958L18.6935 34.7022L18.687 34.7086L18.0873 35.3085L18.0872 35.3086C13.3751 40.0204 5.63184 40.0385 0.802832 35.2958L-2 38.1496C4.37094 44.4067 14.6277 44.4249 20.9157 38.1369L20.9159 38.1367L21.5091 37.5434C22.361 36.7079 23.3034 36.0204 24.3037 35.4805Z" fill="white"/>
</g>
<defs>
<clipPath id="clip0_768_35">
<rect width="60" height="60" fill="white"/>
</clipPath>
</defs>
</svg>
