<svg width="60" height="60" viewBox="0 0 60 60" fill="none" xmlns="http://www.w3.org/2000/svg">
<g clip-path="url(#clip0_739_5)">
<path fill-rule="evenodd" clip-rule="evenodd" d="M58.8871 21.7108C54.1771 26.4208 46.4384 26.4409 41.6089 21.704C35.3203 15.4228 25.0686 15.4432 18.7 21.6981L18.6935 21.7045L18.687 21.7109L18.0873 22.3108L18.0872 22.3109C13.3751 27.0228 5.63184 27.0409 0.802832 22.2981L-2 25.1519C4.37095 31.4091 14.6277 31.4272 20.9157 25.1392L20.9159 25.139L21.5091 24.5457C26.3385 19.8091 34.0773 19.8293 38.7872 24.5392L38.7936 24.5456L38.8 24.5519C45.171 30.8091 55.4275 30.8272 61.7155 24.5392L58.8871 21.7108ZM58.8871 34.6102C54.1771 39.3202 46.4384 39.3403 41.6089 34.6034C35.3203 28.3222 25.0686 28.3426 18.7 34.5975L18.6935 34.6039L18.687 34.6103L18.0873 35.2102L18.0872 35.2103C13.3751 39.9222 5.63184 39.9403 0.802832 35.1975L-2 38.0513C4.37095 44.3085 14.6277 44.3266 20.9157 38.0386L20.9159 38.0385L21.5091 37.4452C26.3385 32.7085 34.0773 32.7287 38.7872 37.4386L38.7936 37.445L38.8 37.4513C45.171 43.7085 55.4275 43.7266 61.7155 37.4386L58.8871 34.6102Z" fill="white"/>
</g>
<defs>
<clipPath id="clip0_739_5">
<rect width="60" height="60" fill="white"/>
</clipPath>
</defs>
</svg>
